<svg width="16" height="15" viewBox="0 0 16 15" fill="none" xmlns="http://www.w3.org/2000/svg">
<path d="M0 2.05156C0 0.918519 0.918523 0 2.05157 0H12.869C14.002 0 14.9205 0.918519 14.9205 2.05156V6.57217C14.5891 6.25406 14.2126 5.98266 13.8015 5.7684V2.05156C13.8015 1.53654 13.384 1.11903 12.869 1.11903H2.05157C1.53655 1.11903 1.11904 1.53654 1.11904 2.05156V9.88481C1.11904 10.3999 1.53655 10.8173 2.05157 10.8173H6.77124C6.83152 11.2077 6.93835 11.5826 7.08591 11.9364H2.05157C0.918523 11.9364 0 11.0179 0 9.88481V2.05156Z" fill="black"/>
<path d="M15.6667 10.0714C15.6667 7.80527 13.8297 5.96826 11.5636 5.96826C9.29747 5.96826 7.46045 7.80527 7.46045 10.0714C7.46045 12.3375 9.29747 14.1745 11.5636 14.1745C13.8297 14.1745 15.6667 12.3375 15.6667 10.0714ZM11.9371 10.4444L11.9374 12.3121C11.9374 12.5181 11.7705 12.6851 11.5644 12.6851C11.3584 12.6851 11.1914 12.5181 11.1914 12.3121L11.191 10.4444H9.32261C9.11663 10.4444 8.94959 10.2774 8.94959 10.0714C8.94959 9.86541 9.11663 9.69838 9.32261 9.69838H11.191L11.1906 7.8328C11.1906 7.62675 11.3576 7.45979 11.5636 7.45979C11.7696 7.45979 11.9366 7.62675 11.9366 7.8328L11.937 9.69838H13.8039C14.01 9.69838 14.1769 9.86541 14.1769 10.0714C14.1769 10.2774 14.01 10.4444 13.8039 10.4444H11.9371Z" fill="black"/>
</svg>
