<svg width="15" height="15" viewBox="0 0 15 15" fill="none" xmlns="http://www.w3.org/2000/svg">
<path d="M11.25 14.5313V12.1875H8.90625C8.78193 12.1875 8.6627 12.1381 8.57479 12.0502C8.48689 11.9623 8.4375 11.8431 8.4375 11.7188C8.4375 11.5945 8.48689 11.4752 8.57479 11.3873C8.6627 11.2994 8.78193 11.25 8.90625 11.25H11.25V8.9063C11.25 8.78198 11.2994 8.66276 11.3873 8.57485C11.4752 8.48694 11.5944 8.43756 11.7188 8.43756C11.8431 8.43756 11.9623 8.48694 12.0502 8.57485C12.1381 8.66276 12.1875 8.78198 12.1875 8.9063V11.25H14.5312C14.6556 11.25 14.7748 11.2994 14.8627 11.3873C14.9506 11.4752 15 11.5945 15 11.7188C15 11.8431 14.9506 11.9623 14.8627 12.0502C14.7748 12.1381 14.6556 12.1875 14.5312 12.1875H12.1875V14.5313C12.1875 14.6556 12.1381 14.7748 12.0502 14.8627C11.9623 14.9506 11.8431 15 11.7188 15C11.5944 15 11.4752 14.9506 11.3873 14.8627C11.2994 14.7748 11.25 14.6556 11.25 14.5313ZM6.28125 15H0V1.40636C0.00617039 1.028 0.162097 0.667512 0.433604 0.403915C0.705112 0.140317 1.07005 -0.00488752 1.44844 0.000125624H8.20781C8.58613 -0.00463945 8.95092 0.140647 9.22238 0.404191C9.49383 0.667736 9.64983 1.02808 9.65625 1.40636V7.03132C9.65625 7.15937 9.60538 7.28217 9.51484 7.37271C9.42429 7.46326 9.30149 7.51413 9.17344 7.51413C9.04539 7.51413 8.92258 7.46326 8.83204 7.37271C8.74149 7.28217 8.69063 7.15937 8.69063 7.03132V1.40636C8.68865 1.28022 8.6367 1.16001 8.54618 1.07212C8.45566 0.984238 8.33397 0.935864 8.20781 0.937618H1.44844C1.3222 0.935862 1.2004 0.984207 1.10973 1.07206C1.01906 1.15992 0.966908 1.28013 0.964688 1.40636V14.0625H2.89687V10.7813C2.8991 10.6551 2.95125 10.5348 3.04192 10.447C3.13259 10.3591 3.25438 10.3108 3.38063 10.3125H6.28125C6.4074 10.3108 6.5291 10.3592 6.61962 10.447C6.71014 10.5349 6.76209 10.6551 6.76406 10.7813V14.0625H8.20781C8.33213 14.0625 8.45136 14.1119 8.53927 14.1998C8.62718 14.2877 8.67656 14.4069 8.67656 14.5313C8.67656 14.6556 8.62718 14.7748 8.53927 14.8627C8.45136 14.9506 8.33213 15 8.20781 15H6.28125ZM3.8625 14.0625H5.79375V11.25H3.8625V14.0625ZM5.79375 8.43756V6.56257H7.725V8.43756H5.79375ZM1.93125 8.43756V6.56257H3.8625V8.43756H1.93125ZM5.79375 4.68759V2.8126H7.725V4.68759H5.79375ZM1.93125 4.68759V2.8126H3.8625V4.68759H1.93125Z" fill="black"/>
</svg>
