<svg width="16" height="14" viewBox="0 0 16 14" fill="none" xmlns="http://www.w3.org/2000/svg">
<path fill-rule="evenodd" clip-rule="evenodd" d="M8.44817 12.8802H2.00806C1.87547 12.8802 1.78076 13.0697 1.78076 13.297C1.78076 13.5243 1.87547 13.7137 2.00806 13.7137H8.44817C8.58076 13.7137 8.69441 13.5243 8.69441 13.297C8.69441 13.0697 8.58076 12.8802 8.44817 12.8802Z" fill="black"/>
<path fill-rule="evenodd" clip-rule="evenodd" d="M0 2.0078C0 0.890251 0.890251 0 2.0078 0H12.5772C13.6758 0 14.585 0.890251 14.585 2.0078V6.42117C14.263 6.11811 13.8841 5.85292 13.4864 5.62563V2.0078C13.4864 1.49638 13.0696 1.09861 12.5772 1.09861H2.0078C1.49638 1.09861 1.09861 1.49638 1.09861 2.0078V9.66017C1.09861 10.1526 1.49638 10.5694 2.0078 10.5694H6.61058C6.66741 10.9482 6.78106 11.3081 6.93259 11.668H2.0078C0.890251 11.668 0 10.7588 0 9.66017V2.0078Z" fill="black"/>
<path fill-rule="evenodd" clip-rule="evenodd" d="M15.3047 9.83064C15.3047 7.63343 13.5053 5.83398 11.3081 5.83398C9.09192 5.83398 7.29248 7.63343 7.29248 9.83064C7.29248 12.0468 9.09192 13.8462 11.3081 13.8462C13.5053 13.8462 15.3047 12.0468 15.3047 9.83064ZM11.668 10.2095V12.0279C11.668 12.2362 11.4975 12.3877 11.3081 12.3877C11.0997 12.3877 10.9292 12.2362 10.9292 12.0279V10.2095H9.11086C8.90251 10.2095 8.75098 10.039 8.75098 9.83064C8.75098 9.64123 8.90251 9.47075 9.11086 9.47075H10.9292V7.65237C10.9292 7.44401 11.0997 7.29248 11.3081 7.29248C11.4975 7.29248 11.668 7.44401 11.668 7.65237V9.47075H13.4864C13.6947 9.47075 13.8462 9.64123 13.8462 9.83064C13.8462 10.039 13.6947 10.2095 13.4864 10.2095H11.668Z" fill="black"/>
</svg>
