<svg width="100" height="100" viewBox="0 0 100 100" fill="none" xmlns="http://www.w3.org/2000/svg">
<path d="M20.8334 79.1668C19.6529 79.1668 18.664 78.7668 17.8668 77.9668C17.0695 77.1668 16.6695 76.178 16.6668 75.0002C16.664 73.8224 17.064 72.8335 17.8668 72.0335C18.6695 71.2335 19.6584 70.8335 20.8334 70.8335H25.0001V41.6668C25.0001 35.903 26.7362 30.7821 30.2084 26.3043C33.6807 21.8266 38.1945 18.8918 43.7501 17.5002V14.5835C43.7501 12.8474 44.3584 11.3724 45.5751 10.1585C46.7918 8.94462 48.2668 8.33628 50.0001 8.33351C51.7334 8.33073 53.2098 8.93906 54.4293 10.1585C55.6487 11.378 56.2557 12.853 56.2501 14.5835V17.5002C61.8057 18.8891 66.3195 21.8238 69.7918 26.3043C73.264 30.7849 75.0001 35.9057 75.0001 41.6668V70.8335H79.1668C80.3473 70.8335 81.3376 71.2335 82.1376 72.0335C82.9376 72.8335 83.3362 73.8224 83.3334 75.0002C83.3307 76.178 82.9307 77.1682 82.1334 77.971C81.3362 78.7738 80.3473 79.1724 79.1668 79.1668H20.8334ZM50.0001 91.6668C47.7084 91.6668 45.7473 90.8516 44.1168 89.221C42.4862 87.5905 41.6695 85.628 41.6668 83.3335H58.3334C58.3334 85.6252 57.5182 87.5877 55.8876 89.221C54.257 90.8543 52.2945 91.6696 50.0001 91.6668ZM33.3334 70.8335H66.6668V41.6668C66.6668 37.0835 65.0348 33.1599 61.7709 29.896C58.507 26.6321 54.5834 25.0002 50.0001 25.0002C45.4168 25.0002 41.4932 26.6321 38.2293 29.896C34.9654 33.1599 33.3334 37.0835 33.3334 41.6668V70.8335ZM45.8334 54.1668V58.3335C45.8334 59.5141 46.2334 60.5043 47.0334 61.3043C47.8334 62.1043 48.8223 62.503 50.0001 62.5002C51.1779 62.4974 52.1682 62.0974 52.9709 61.3002C53.7737 60.503 54.1723 59.5141 54.1668 58.3335V54.1668H58.3334C59.514 54.1668 60.5043 53.7668 61.3043 52.9668C62.1043 52.1668 62.5029 51.178 62.5001 50.0002C62.4973 48.8224 62.0973 47.8335 61.3001 47.0335C60.5029 46.2335 59.514 45.8335 58.3334 45.8335H54.1668V41.6668C54.1668 40.4863 53.7668 39.4974 52.9668 38.7002C52.1668 37.903 51.1779 37.503 50.0001 37.5002C48.8223 37.4974 47.8334 37.8974 47.0334 38.7002C46.2334 39.503 45.8334 40.4918 45.8334 41.6668V45.8335H41.6668C40.4862 45.8335 39.4973 46.2335 38.7001 47.0335C37.9029 47.8335 37.5029 48.8224 37.5001 50.0002C37.4973 51.178 37.8973 52.1682 38.7001 52.971C39.5029 53.7738 40.4918 54.1724 41.6668 54.1668H45.8334Z" fill="#FFBD66"/>
</svg>
