<svg width="65" height="36" viewBox="0 0 65 36" fill="none" xmlns="http://www.w3.org/2000/svg">
<path d="M32.623 0.0398422C31.8354 0.0461122 31.0833 0.220693 30.5266 0.526477L1.53659 16.4356C1.25549 16.5898 1.03249 16.7729 0.880351 16.9743C0.72821 17.1758 0.649902 17.3918 0.649902 17.6099C0.649902 17.828 0.72821 18.044 0.880351 18.2455C1.03249 18.447 1.25549 18.6301 1.53659 18.7843L30.5266 34.6934C30.8075 34.8476 31.1411 34.97 31.5083 35.0535C31.8755 35.137 32.269 35.18 32.6665 35.18C33.0639 35.18 33.4575 35.137 33.8247 35.0535C34.1919 34.97 34.5254 34.8476 34.8064 34.6934L63.7964 18.7843C64.0775 18.6301 64.3005 18.447 64.4526 18.2455C64.6048 18.044 64.6831 17.828 64.6831 17.6099C64.6831 17.3918 64.6048 17.1758 64.4526 16.9743C64.3005 16.7729 64.0775 16.5898 63.7964 16.4356L34.8064 0.526477C34.5203 0.369327 34.1796 0.245283 33.8046 0.161694C33.4295 0.078105 33.0277 0.0366697 32.623 0.0398422ZM32.6665 4.04818L38.2455 7.11014C37.449 7.4142 36.677 7.77919 35.9366 8.20186C34.1264 9.23276 32.4417 10.6184 31.4582 12.451C27.5543 11.8363 23.5658 11.4662 19.633 11.2004L32.6665 4.04818ZM42.4613 9.42357L57.3799 17.6099L52.4885 20.2935C47.4858 16.5412 41.392 14.377 34.9178 13.0644C35.5697 12.312 36.4872 11.5724 37.52 10.984C39.076 10.0985 40.8733 9.55804 41.9785 9.50873C42.1429 9.5053 42.3057 9.47658 42.4613 9.42357ZM14.4202 14.062C14.5263 14.0897 14.6348 14.1064 14.7442 14.1119C27.1829 14.797 40.3893 16.0188 49.3683 22.0056L47.2335 23.1774C42.3723 20.0405 36.7952 17.7642 29.8626 18.1241C25.7287 18.3386 21.1096 19.4976 15.8782 21.9583L7.95441 17.6099L14.4202 14.062ZM31.8738 21.1566C36.5288 21.245 40.3758 22.7791 44.0141 24.9447L32.6665 31.1717L19.3974 23.8894C24.2163 21.8763 28.2849 21.0887 31.8738 21.1566Z" fill="black" stroke="black" stroke-width="0.001"/>
</svg>
