<svg width="36" height="36" viewBox="0 0 36 36" fill="none" xmlns="http://www.w3.org/2000/svg">
<path d="M0 18C0 27.9407 8.05933 36 18 36C27.9407 36 36 27.9407 36 18C36 8.05933 27.9407 0 18 0C8.05933 0 0 8.05933 0 18ZM18.4024 10.0938C18.5315 10.2219 18.6341 10.3742 18.7044 10.5419C18.7747 10.7096 18.8112 10.8896 18.812 11.0714C18.8127 11.2533 18.7776 11.4335 18.7086 11.6018C18.6397 11.7701 18.5383 11.9231 18.4102 12.0522L13.8825 16.6154H25.4423C25.8095 16.6154 26.1617 16.7613 26.4214 17.0209C26.681 17.2806 26.8269 17.6328 26.8269 18C26.8269 18.3672 26.681 18.7194 26.4214 18.9791C26.1617 19.2387 25.8095 19.3846 25.4423 19.3846H13.8825L18.4102 23.9478C18.5383 24.077 18.6396 24.2302 18.7085 24.3986C18.7774 24.567 18.8124 24.7473 18.8116 24.9292C18.8108 25.1111 18.7742 25.2911 18.7038 25.4589C18.6335 25.6267 18.5308 25.7789 18.4015 25.907C18.2723 26.0351 18.1192 26.1365 17.9508 26.2053C17.7824 26.2742 17.6021 26.3093 17.4201 26.3085C17.2382 26.3077 17.0582 26.271 16.8904 26.2007C16.7227 26.1303 16.5704 26.0276 16.4423 25.8984L9.57202 18.9753C9.31466 18.7159 9.17024 18.3654 9.17024 18C9.17024 17.6346 9.31466 17.2841 9.57202 17.0247L16.4423 10.1016C16.5704 9.97226 16.7228 9.86941 16.8907 9.79898C17.0585 9.72856 17.2387 9.69194 17.4207 9.69121C17.6028 9.69049 17.7832 9.72568 17.9517 9.79477C18.1201 9.86386 18.2733 9.96549 18.4024 10.0938Z" fill="#10113D"/>
</svg>
