<svg width="50" height="47" viewBox="0 0 50 47" fill="none" xmlns="http://www.w3.org/2000/svg">
<path d="M50 44.1813V46.9085H0V0.0914307H2.7272V44.1819H49.9999L50 44.1813ZM8.59628 21.4383C8.98152 21.4383 9.3468 21.359 9.68909 21.2335L14.7407 29.1429C14.0396 29.8063 13.5973 30.7388 13.5973 31.7795C13.5973 33.7871 15.2256 35.4151 17.2334 35.4151C19.2414 35.4151 20.8695 33.7871 20.8695 31.7795C20.8695 31.2222 20.7345 30.7012 20.511 30.229L27.1431 25.3816C27.6602 25.8225 28.3204 26.0975 29.0516 26.0975C29.8601 26.0975 30.5918 25.771 31.1249 25.2452L37.9084 29.4877C37.5611 30.0923 37.36 30.7915 37.36 31.5391C37.36 33.8236 39.2109 35.6746 41.4945 35.6746C43.7777 35.6746 45.6288 33.8236 45.6288 31.5391C45.6288 29.2547 43.7777 27.4037 41.4945 27.4037C40.4547 27.4037 39.5064 27.7906 38.7798 28.4252L31.8389 24.0826C31.9388 23.7858 32.0053 23.4735 32.0053 23.1429C32.0053 21.5114 30.6828 20.1887 29.0516 20.1887C27.4195 20.1887 26.0966 21.5114 26.0966 23.1429C26.0966 23.5494 26.1792 23.9363 26.3285 24.2891L19.7069 29.127C19.0575 28.5212 18.1923 28.1429 17.2341 28.1429C16.7583 28.1429 16.3063 28.2407 15.8893 28.4072L10.8448 20.5089C11.4224 19.933 11.7797 19.1366 11.7797 18.2571C11.7797 16.4993 10.3554 15.075 8.59762 15.075C6.84033 15.075 5.41571 16.4993 5.41571 18.2571C5.41546 20.0147 6.83911 21.4383 8.59628 21.4383Z" fill="black"/>
</svg>
