<svg width="15" height="15" viewBox="0 0 15 15" fill="none" xmlns="http://www.w3.org/2000/svg">
<rect width="15" height="15" rx="7.5" fill="#B80000"/>
<path d="M7.49814 15C9.50359 15 11.3902 14.2129 12.8014 12.802C14.2127 11.3911 15 9.50495 15 7.5C15 5.49505 14.2127 3.60891 12.8014 2.19802C11.3902 0.787129 9.50359 0 7.49814 0C5.4927 0 3.60609 0.787129 2.19485 2.19802C-0.731615 5.12376 -0.731615 9.87624 2.19485 12.802C3.60609 14.2129 5.4927 15 7.49814 15ZM7.49814 0.891089C9.26591 0.891089 10.9297 1.57426 12.1775 2.82178C13.4254 4.06931 14.1087 5.73267 14.1087 7.5C14.1087 9.26733 13.4254 10.9307 12.1775 12.1782C10.9297 13.4257 9.26591 14.1089 7.49814 14.1089C5.73038 14.1089 4.0666 13.4257 2.81877 12.1782C0.23397 9.59406 0.23397 5.40594 2.81877 2.82178C4.0666 1.57426 5.73038 0.891089 7.49814 0.891089Z" fill="#B80000"/>
<path d="M3.86096 4.45152L10.5416 11.1304L11.1299 10.5423L4.44922 3.8634L3.86096 4.45152Z" fill="white"/>
<path d="M10.915 4.66344L10.3208 4.08423L3.85884 10.5446L4.45304 11.1387L10.915 4.66344Z" fill="white"/>
</svg>
