<svg width="15" height="13" viewBox="0 0 15 13" fill="none" xmlns="http://www.w3.org/2000/svg">
<path d="M11.0421 10.606V8.05335L12.6253 6.47021V11.1209C12.6253 12.0511 11.8533 12.8231 10.9433 12.8231H1.68194C0.751678 12.8231 0 12.0511 0 11.1209V1.87908C0 0.948822 0.752311 0.17688 1.68194 0.17688H11.082V0.196511L9.49888 1.76003H2.21641C1.88015 1.76003 1.58315 2.05703 1.58315 2.41292V10.606C1.58315 10.9625 1.88015 11.2393 2.21641 11.2393H10.4095C10.7458 11.2393 11.0421 10.9619 11.0421 10.606ZM12.5461 0.948822L14.2281 2.63076L15 1.85882L13.3181 0.17688L12.5461 0.948822ZM6.62895 6.88562L8.29126 8.56756L13.6543 3.20449L11.992 1.52255L6.62895 6.88562ZM5.44159 9.73529L7.73715 9.12166L6.05522 7.43972L5.44159 9.73529Z" fill="black"/>
</svg>
