<svg width="590" height="404" viewBox="0 0 590 404" fill="none" xmlns="http://www.w3.org/2000/svg">
<g clip-path="url(#clip0_329_5600)">
<path d="M567.129 389.875C567.129 389.875 596.421 306.335 588.701 232.107C581.082 158.927 519.475 81.0719 427.352 103.225C359.811 119.457 359.661 72.4449 329.895 35.8048C275.882 -30.6558 176.764 1.19694 158.34 83.7772C147.772 131.126 106.926 130.403 78.3831 137.397C37.7865 147.358 5.5715 196.178 1.09963 249.436C-6.13281 335.707 24.7581 389.875 24.7581 389.875H567.129Z" fill="#EDF8FF"/>
<path d="M18.5247 389.352C18.5247 397.443 142.376 403.988 295.156 403.988C447.937 403.988 571.775 397.43 571.775 389.352C571.775 381.273 447.924 374.728 295.156 374.728C142.388 374.728 18.5247 381.286 18.5247 389.352Z" fill="#87D4C7"/>
<path d="M157.814 314.825C159.863 319.724 161.762 324.686 163.286 329.785C164.897 335.183 166.146 340.693 167.333 346.191C167.42 346.628 166.758 346.802 166.658 346.378C165.497 340.955 164.272 335.557 162.699 330.234C161.175 325.11 159.276 320.111 157.215 315.174C157.052 314.762 157.652 314.426 157.814 314.837V314.825Z" fill="#87D4C7"/>
<path d="M154.155 307.793C157.078 309.177 158.939 312.755 158.014 315.884C157.989 315.959 157.902 316.009 157.815 315.972C154.804 314.725 153.18 311.022 153.955 307.893C153.98 307.806 154.08 307.756 154.155 307.793Z" fill="#87D4C7"/>
<path d="M153.155 318.901C156.328 318.29 159.951 320.085 161.062 323.152C161.087 323.227 161.037 323.327 160.962 323.339C157.79 324.112 154.292 322.08 153.055 319.1C153.018 319.013 153.068 318.926 153.168 318.901H153.155Z" fill="#87D4C7"/>
<path d="M166.396 322.118C167.32 325.209 165.896 328.987 162.949 330.383C162.874 330.421 162.774 330.383 162.749 330.296C161.662 327.217 163.336 323.551 166.184 322.018C166.259 321.968 166.359 322.018 166.396 322.105V322.118Z" fill="#87D4C7"/>
<path d="M157.752 332.989C160.962 332.565 164.472 334.572 165.384 337.689C165.409 337.776 165.359 337.863 165.272 337.876C162.062 338.462 158.701 336.23 157.627 333.176C157.602 333.089 157.652 333.001 157.752 332.989Z" fill="#87D4C7"/>
<path d="M166.047 291.923C173.916 309.19 178.463 327.952 181.411 346.628C181.498 347.176 180.649 347.401 180.561 346.852C177.613 328.252 173.117 309.539 165.272 292.347C165.035 291.836 165.797 291.4 166.034 291.911L166.047 291.923Z" fill="#87D4C7"/>
<path d="M161.425 283.022C165.122 284.78 167.483 289.305 166.309 293.257C166.284 293.357 166.159 293.419 166.059 293.369C162.249 291.798 160.201 287.111 161.162 283.146C161.187 283.034 161.312 282.972 161.412 283.022H161.425Z" fill="#87D4C7"/>
<path d="M159.201 295.277C163.211 294.504 167.795 296.773 169.194 300.65C169.232 300.75 169.169 300.862 169.069 300.887C165.06 301.859 160.638 299.291 159.064 295.526C159.014 295.414 159.089 295.302 159.201 295.277Z" fill="#87D4C7"/>
<path d="M173.579 290.377C174.753 294.292 172.954 299.067 169.219 300.837C169.119 300.887 169.007 300.837 168.97 300.737C167.595 296.847 169.719 292.197 173.316 290.265C173.416 290.215 173.554 290.265 173.579 290.377Z" fill="#87D4C7"/>
<path d="M163.236 305.973C167.246 305.2 171.83 307.469 173.229 311.346C173.266 311.446 173.204 311.558 173.092 311.583C169.082 312.556 164.66 309.987 163.086 306.21C163.036 306.11 163.111 305.986 163.223 305.961L163.236 305.973Z" fill="#87D4C7"/>
<path d="M177.613 301.074C178.788 304.988 176.989 309.763 173.254 311.534C173.154 311.583 173.042 311.534 173.004 311.434C171.63 307.544 173.754 302.907 177.351 300.974C177.451 300.912 177.576 300.974 177.613 301.074Z" fill="#87D4C7"/>
<path d="M166.584 316.495C170.643 315.959 175.09 318.49 176.239 322.442C176.264 322.542 176.202 322.654 176.102 322.679C172.042 323.414 167.783 320.597 166.434 316.732C166.396 316.62 166.471 316.508 166.584 316.495Z" fill="#87D4C7"/>
<path d="M181.236 312.443C182.173 316.42 180.087 321.083 176.264 322.629C176.165 322.666 176.052 322.616 176.015 322.504C174.878 318.54 177.264 314.039 180.974 312.319C181.074 312.269 181.198 312.331 181.236 312.443Z" fill="#87D4C7"/>
<path d="M169.719 328.975C173.791 328.613 178.125 331.318 179.137 335.308C179.162 335.408 179.087 335.52 178.987 335.532C174.903 336.118 170.756 333.114 169.569 329.212C169.531 329.099 169.619 328.987 169.719 328.975Z" fill="#87D4C7"/>
<path d="M184.521 325.521C185.296 329.523 183.022 334.098 179.15 335.507C179.05 335.544 178.938 335.482 178.913 335.37C177.926 331.368 180.499 326.955 184.284 325.384C184.384 325.347 184.509 325.409 184.534 325.521H184.521Z" fill="#87D4C7"/>
<path d="M225.617 274.47H142.35C136.842 274.47 132.357 269.994 132.357 264.496V226.435H134.856V264.496C134.856 268.623 138.216 271.976 142.35 271.976H225.617V274.47Z" fill="#398FB9"/>
<path d="M225.617 277.911C228.215 277.911 230.314 275.816 230.314 273.223C230.314 270.63 228.215 268.536 225.617 268.536C223.019 268.536 220.92 270.63 220.92 273.223C220.92 275.816 223.019 277.911 225.617 277.911Z" fill="#30617A"/>
<path d="M225.617 253.737H184.284C178.775 253.737 174.291 249.262 174.291 243.764V226.447H176.789V243.764C176.789 247.89 180.149 251.244 184.284 251.244H225.617V253.737Z" fill="#398FB9"/>
<path d="M225.617 257.178C228.216 257.178 230.314 255.083 230.314 252.49C230.314 249.897 228.216 247.803 225.617 247.803C223.019 247.803 220.921 249.897 220.921 252.49C220.921 255.083 223.019 257.178 225.617 257.178Z" fill="#30617A"/>
<path d="M155.829 88.7016H153.33V76.0851C153.33 70.5873 157.815 66.1117 163.323 66.1117H204.445C208.579 66.1117 211.939 62.7581 211.939 58.6316V29.347C211.939 23.8491 216.424 19.3735 221.932 19.3735H255.771C261.28 19.3735 265.764 23.8491 265.764 29.347V38.0738H263.266V29.347C263.266 25.2205 259.906 21.8669 255.771 21.8669H221.932C217.798 21.8669 214.438 25.2205 214.438 29.347V58.6316C214.438 64.1294 209.953 68.605 204.445 68.605H163.323C159.189 68.605 155.829 71.9586 155.829 76.0851V88.7016Z" fill="#3A8F92"/>
<path d="M259.818 38.0616C259.818 40.6547 261.917 42.7491 264.515 42.7491C267.113 42.7491 269.212 40.6547 269.212 38.0616C269.212 35.4685 267.113 33.374 264.515 33.374C261.917 33.374 259.818 35.4685 259.818 38.0616Z" fill="#1C6F73"/>
<path d="M423.192 202.922H401.607V200.429H423.192C427.326 200.429 430.687 197.075 430.687 192.949V182.028C430.687 176.53 435.171 172.055 440.68 172.055H473.731C475.83 172.055 477.816 171.244 479.203 169.823C480.414 168.576 481.064 166.968 481.026 165.298L480.814 157.269L483.312 157.207L483.525 165.235C483.587 167.591 482.688 169.835 481.001 171.568C479.153 173.463 476.505 174.548 473.744 174.548H440.692C436.557 174.548 433.197 177.901 433.197 182.028V192.949C433.197 198.447 428.713 202.922 423.204 202.922H423.192Z" fill="#30617A"/>
<path d="M401.607 206.363C399.009 206.363 396.91 204.269 396.91 201.676C396.91 199.083 399.009 196.988 401.607 196.988C404.205 196.988 406.304 199.083 406.304 201.676C406.304 204.269 404.205 206.363 401.607 206.363Z" fill="#224A5F"/>
<path d="M122.252 92.3418H186.894C199.548 92.3418 209.816 102.59 209.816 115.218V199.133C209.816 211.762 199.548 222.009 186.894 222.009H122.252C109.598 222.009 99.3306 211.762 99.3306 199.133V115.218C99.3306 102.59 109.598 92.3418 122.252 92.3418Z" fill="#398FB9"/>
<path d="M117.593 123.995H191.579C192.99 123.995 194.139 125.142 194.139 126.55V162.492C194.139 163.901 192.99 165.048 191.579 165.048H117.593C116.181 165.048 115.032 163.901 115.032 162.492V126.55C115.032 125.142 116.181 123.995 117.593 123.995Z" fill="white"/>
<path d="M191.566 165.684H117.58C115.819 165.684 114.383 164.25 114.383 162.492V126.55C114.383 124.793 115.819 123.359 117.58 123.359H191.566C193.327 123.359 194.764 124.793 194.764 126.55V162.492C194.764 164.25 193.327 165.684 191.566 165.684ZM117.593 124.631C116.531 124.631 115.669 125.491 115.669 126.55V162.492C115.669 163.552 116.531 164.412 117.593 164.412H191.579C192.64 164.412 193.502 163.552 193.502 162.492V126.55C193.502 125.491 192.64 124.631 191.579 124.631H117.593Z" fill="#224A5F"/>
<path d="M175.502 230.885H133.657C128.735 230.885 124.75 226.909 124.75 221.997H184.409C184.409 226.909 180.424 230.885 175.502 230.885Z" fill="#224A5F"/>
<path d="M130.446 132.697H124.213C123.509 132.697 122.939 133.266 122.939 133.968V142.857C122.939 143.56 123.509 144.129 124.213 144.129H130.446C131.15 144.129 131.72 143.56 131.72 142.857V133.968C131.72 133.266 131.15 132.697 130.446 132.697Z" fill="#14232F"/>
<path d="M135.168 132.697H141.389C142.088 132.697 142.663 133.27 142.663 133.968V142.845C142.663 143.555 142.088 144.116 141.389 144.116H135.168C134.456 144.116 133.894 143.543 133.894 142.845V133.968C133.894 133.27 134.468 132.697 135.168 132.697Z" fill="#14232F"/>
<path d="M152.294 132.697H146.073C145.369 132.697 144.799 133.266 144.799 133.968V142.857C144.799 143.56 145.369 144.129 146.073 144.129H152.294C152.997 144.129 153.568 143.56 153.568 142.857V133.968C153.568 133.266 152.997 132.697 152.294 132.697Z" fill="#14232F"/>
<path d="M157.103 132.697H163.323C164.023 132.697 164.597 133.27 164.597 133.968V142.845C164.597 143.555 164.023 144.116 163.323 144.116H157.103C156.391 144.116 155.829 143.543 155.829 142.845V133.968C155.829 133.27 156.403 132.697 157.103 132.697Z" fill="#14232F"/>
<path d="M167.883 132.697H174.103C174.815 132.697 175.39 133.27 175.39 133.981V142.857C175.39 143.568 174.815 144.129 174.116 144.129H167.895C167.196 144.129 166.621 143.555 166.621 142.857V133.981C166.621 133.283 167.196 132.709 167.895 132.709L167.883 132.697Z" fill="#14232F"/>
<path d="M184.921 132.697H178.688C177.984 132.697 177.414 133.266 177.414 133.968V142.857C177.414 143.56 177.984 144.129 178.688 144.129H184.921C185.624 144.129 186.195 143.56 186.195 142.857V133.968C186.195 133.266 185.624 132.697 184.921 132.697Z" fill="#FFBD66"/>
<path d="M153.493 150.3C153.493 150.587 153.205 150.824 152.868 150.824H123.514C123.176 150.824 122.889 150.587 122.889 150.3C122.889 150.013 123.164 149.776 123.514 149.776H152.868C153.205 149.776 153.493 150.013 153.493 150.3Z" fill="#88CEFC"/>
<path d="M153.493 155.125C153.493 155.411 153.205 155.648 152.868 155.648H123.514C123.176 155.648 122.889 155.411 122.889 155.125C122.889 154.838 123.164 154.601 123.514 154.601H152.868C153.205 154.601 153.493 154.838 153.493 155.125Z" fill="#88CEFC"/>
<path d="M135.33 226.447C135.33 227.395 134.556 228.155 133.619 228.155C132.682 228.155 131.895 227.382 131.895 226.447C131.895 225.512 132.67 224.727 133.619 224.727C134.568 224.727 135.33 225.5 135.33 226.447Z" fill="#30617A"/>
<path d="M177.264 226.447C177.264 227.395 176.489 228.155 175.54 228.155C174.591 228.155 173.829 227.382 173.829 226.447C173.829 225.512 174.591 224.727 175.54 224.727C176.489 224.727 177.264 225.5 177.264 226.447Z" fill="#30617A"/>
<path d="M169.969 92.3417H139.19C139.19 88.3273 142.463 85.061 146.485 85.061H162.674C166.708 85.061 169.969 88.3149 169.969 92.3417Z" fill="#224A5F"/>
<path d="M156.303 88.7014C156.303 89.6489 155.529 90.4093 154.579 90.4093C153.63 90.4093 152.868 89.6364 152.868 88.7014C152.868 87.7664 153.643 86.981 154.579 86.981C155.516 86.981 156.303 87.7539 156.303 88.7014Z" fill="#30617A"/>
<path d="M160.363 151.447C160.363 152.369 159.613 153.117 158.689 153.117C157.765 153.117 157.015 152.369 157.015 151.447C157.015 150.524 157.765 149.776 158.689 149.776C159.613 149.776 160.363 150.524 160.363 151.447Z" fill="#398FB9"/>
<path d="M167.958 151.447C167.958 152.369 167.208 153.117 166.284 153.117C165.359 153.117 164.61 152.369 164.61 151.447C164.61 150.524 165.359 149.776 166.284 149.776C167.208 149.776 167.958 150.524 167.958 151.447Z" fill="#398FB9"/>
<path d="M129.397 138.893C129.397 139.865 129.235 140.588 128.897 141.05C128.56 141.523 128.048 141.76 127.336 141.76C126.624 141.76 126.124 141.536 125.787 141.075C125.45 140.613 125.275 139.928 125.262 139.005V137.908C125.262 136.948 125.425 136.238 125.762 135.776C126.099 135.315 126.612 135.078 127.324 135.078C128.036 135.078 128.548 135.303 128.872 135.751C129.197 136.2 129.372 136.898 129.385 137.833V138.905L129.397 138.893ZM128.56 137.758C128.56 137.06 128.46 136.549 128.26 136.225C128.06 135.901 127.748 135.739 127.324 135.739C126.899 135.739 126.587 135.901 126.399 136.213C126.212 136.537 126.112 137.023 126.099 137.684V139.005C126.099 139.703 126.199 140.227 126.412 140.564C126.612 140.9 126.924 141.062 127.336 141.062C127.748 141.062 128.048 140.9 128.248 140.588C128.448 140.277 128.548 139.778 128.56 139.092V137.734V137.758Z" fill="white"/>
<path d="M140.339 138.893C140.339 139.865 140.177 140.588 139.84 141.05C139.515 141.523 138.99 141.76 138.278 141.76C137.566 141.76 137.067 141.536 136.729 141.075C136.392 140.613 136.217 139.928 136.205 139.005V137.908C136.205 136.948 136.367 136.238 136.704 135.776C137.029 135.315 137.554 135.078 138.266 135.078C138.978 135.078 139.49 135.303 139.815 135.751C140.152 136.2 140.314 136.898 140.327 137.833V138.905L140.339 138.893ZM139.515 137.758C139.515 137.06 139.415 136.549 139.215 136.225C139.015 135.901 138.703 135.739 138.278 135.739C137.854 135.739 137.541 135.901 137.354 136.213C137.154 136.537 137.054 137.023 137.054 137.684V139.005C137.054 139.703 137.154 140.227 137.367 140.564C137.566 140.9 137.879 141.062 138.303 141.062C138.728 141.062 139.015 140.9 139.215 140.588C139.415 140.277 139.515 139.778 139.528 139.092V137.734L139.515 137.758Z" fill="white"/>
<path d="M147.372 138.407L147.709 135.153H151.057V135.913H148.409L148.209 137.696C148.534 137.509 148.896 137.409 149.308 137.409C149.895 137.409 150.37 137.609 150.72 137.995C151.07 138.382 151.244 138.918 151.244 139.591C151.244 140.264 151.07 140.788 150.695 141.174C150.333 141.561 149.82 141.76 149.171 141.76C148.596 141.76 148.122 141.598 147.759 141.287C147.385 140.962 147.185 140.526 147.135 139.965H147.922C147.972 140.339 148.109 140.626 148.321 140.813C148.534 141 148.821 141.1 149.171 141.1C149.558 141.1 149.858 140.975 150.083 140.701C150.308 140.439 150.407 140.077 150.407 139.616C150.407 139.18 150.295 138.831 150.045 138.569C149.808 138.307 149.496 138.17 149.096 138.17C148.734 138.17 148.446 138.245 148.246 138.407L148.034 138.581L147.372 138.407Z" fill="white"/>
<path d="M162.411 135.714L159.713 141.76H158.839L161.537 135.926H158.002V135.24H162.411V135.702V135.714Z" fill="white"/>
<path d="M173.191 141.76H168.919V141.162L171.18 138.656C171.518 138.282 171.742 137.97 171.88 137.733C172.005 137.497 172.067 137.247 172.067 136.998C172.067 136.661 171.967 136.375 171.755 136.163C171.543 135.938 171.28 135.839 170.93 135.839C170.518 135.839 170.193 135.951 169.969 136.188C169.744 136.424 169.631 136.749 169.631 137.172H168.794C168.794 136.574 168.982 136.088 169.382 135.714C169.769 135.34 170.281 135.153 170.93 135.153C171.543 135.153 172.017 135.315 172.367 135.627C172.717 135.938 172.892 136.362 172.892 136.898C172.892 137.546 172.479 138.307 171.667 139.192L169.919 141.087H173.191V141.76Z" fill="white"/>
<path d="M183.259 139.578H184.159V140.252H183.259V141.76H182.422V140.252H179.449V139.765L182.372 135.252H183.259V139.578ZM180.386 139.578H182.41V136.387L182.31 136.561L180.374 139.578H180.386Z" fill="white"/>
<path d="M498.714 117.699C504.672 103.325 527.744 87.5794 527.744 60.3767C527.744 33.1741 506.746 13.6885 482.475 13.6885C458.205 13.6885 437.207 33.1492 437.207 60.3767C437.207 87.6043 460.278 103.325 466.237 117.699H498.714Z" fill="#FFBD66"/>
<path d="M478.841 118.335C478.953 114.408 478.928 110.481 478.878 106.554C478.753 98.8497 478.428 91.1202 477.442 83.4656C476.979 79.8627 476.355 76.2722 475.343 72.769C474.106 68.5054 471.933 63.7805 467.349 62.3219C465.275 61.6611 462.839 61.873 461.066 63.1821C459.704 64.1669 458.88 65.663 458.642 67.3086C458.405 68.9667 458.717 70.6746 459.442 72.1706C460.416 74.1529 462.227 75.6738 464.113 76.7709C466.399 78.0924 469.01 78.7781 471.646 78.8529C472.445 78.8778 473.257 78.8529 474.069 78.8529H482.476C483.05 78.8529 483.05 77.9677 482.476 77.9677H476.342C473.794 77.9677 471.146 78.1423 468.648 77.5937C464.601 76.6836 460.166 73.8786 459.517 69.4778C459.292 67.9444 459.554 66.2988 460.453 65.0147C461.565 63.4314 463.589 62.7457 465.462 62.8579C470.359 63.1821 472.957 68.094 474.244 72.208C475.293 75.5865 475.955 79.0897 476.43 82.5929C477.442 89.9982 477.791 97.4908 477.941 104.958C478.029 109.347 478.054 113.735 477.941 118.136C477.941 118.198 477.941 118.273 477.941 118.335C477.929 118.909 478.816 118.909 478.828 118.335H478.841Z" fill="white"/>
<path d="M487.01 118.335C486.91 114.67 486.923 110.992 486.973 107.327C487.073 99.9466 487.372 92.5538 488.197 85.2233C488.584 81.7949 489.096 78.3665 489.933 75.013C490.957 70.9363 492.369 66.2862 496.166 63.9549C498.127 62.7456 500.688 62.4215 502.774 63.5186C504.211 64.279 505.122 65.6504 505.41 67.2212C505.697 68.7796 505.397 70.4626 504.673 71.8589C503.648 73.8411 501.75 75.3122 499.801 76.322C497.64 77.444 495.217 77.9427 492.794 77.9551C492.057 77.9551 491.32 77.9551 490.583 77.9551H482.501C481.926 77.9551 481.926 78.8403 482.501 78.8403H488.971C491.794 78.8403 494.655 79.0024 497.403 78.217C501.438 77.07 505.635 74.0904 506.309 69.6896C506.559 68.0565 506.359 66.3361 505.51 64.9024C504.573 63.3191 502.899 62.3217 501.088 62.035C498.627 61.6485 496.229 62.5711 494.38 64.1668C492.681 65.6255 491.532 67.5827 490.695 69.6273C489.246 73.1554 488.484 77.0077 487.91 80.7602C486.723 88.4397 486.336 96.244 486.148 103.998C486.036 108.698 486.011 113.398 486.123 118.098C486.123 118.173 486.123 118.248 486.123 118.31C486.136 118.884 487.035 118.884 487.01 118.31V118.335Z" fill="white"/>
<path d="M471.083 152.432C471.646 158.229 476.53 162.754 482.476 162.754C488.421 162.754 493.318 158.229 493.88 152.432H471.083Z" fill="#30617A"/>
<path d="M497.378 125.952H467.586C465.138 125.952 463.164 123.97 463.164 121.539C463.164 119.096 465.138 117.126 467.586 117.126H497.378C499.826 117.126 501.8 119.108 501.8 121.539C501.8 123.983 499.813 125.952 497.378 125.952Z" fill="#398FB9"/>
<path d="M497.378 134.779H467.586C465.138 134.779 463.164 132.796 463.164 130.365C463.164 127.922 465.138 125.952 467.586 125.952H497.378C499.826 125.952 501.8 127.922 501.8 130.365C501.8 132.796 499.813 134.779 497.378 134.779Z" fill="#398FB9"/>
<path d="M497.378 143.605H467.586C465.138 143.605 463.164 141.636 463.164 139.192C463.164 136.761 465.138 134.779 467.586 134.779H497.378C499.826 134.779 501.8 136.761 501.8 139.192C501.8 141.636 499.813 143.605 497.378 143.605Z" fill="#398FB9"/>
<path d="M497.378 152.432H467.586C465.138 152.432 463.164 150.462 463.164 148.019C463.164 145.575 465.138 143.605 467.586 143.605H497.378C499.826 143.605 501.8 145.588 501.8 148.019C501.8 150.462 499.813 152.432 497.378 152.432Z" fill="#398FB9"/>
<path d="M467.823 126.513C471.158 126.501 474.493 126.488 477.829 126.476C483.137 126.451 488.446 126.438 493.755 126.413C494.967 126.413 496.178 126.413 497.377 126.401C497.952 126.401 497.952 125.503 497.377 125.516C494.042 125.516 490.707 125.541 487.372 125.553C482.063 125.578 476.754 125.591 471.446 125.615C470.234 125.615 469.022 125.615 467.823 125.628C467.248 125.628 467.248 126.513 467.823 126.513Z" fill="#30617A"/>
<path d="M467.336 135.278C470.671 135.265 474.006 135.253 477.341 135.24C482.65 135.215 487.959 135.203 493.268 135.178C494.479 135.178 495.691 135.178 496.89 135.165C497.465 135.165 497.465 134.28 496.89 134.28C493.555 134.293 490.22 134.305 486.885 134.318C481.576 134.343 476.267 134.355 470.958 134.38C469.747 134.38 468.547 134.38 467.336 134.392C466.761 134.392 466.761 135.278 467.336 135.278Z" fill="#30617A"/>
<path d="M467.711 144.142C471.046 144.142 474.381 144.117 477.716 144.104C483.025 144.079 488.334 144.067 493.643 144.042C494.854 144.042 496.053 144.042 497.265 144.029C497.84 144.029 497.84 143.132 497.265 143.144C493.93 143.157 490.595 143.169 487.26 143.182C481.951 143.207 476.642 143.231 471.333 143.244C470.122 143.244 468.922 143.244 467.711 143.256C467.136 143.256 467.136 144.142 467.711 144.142Z" fill="#30617A"/>
<path d="M253.348 37.8992H373.489C389.028 37.8992 401.644 50.4907 401.644 65.9994V358.11C401.644 373.618 389.028 386.21 373.489 386.21H253.348C237.809 386.21 225.193 373.618 225.193 358.11V65.9869C225.193 50.4782 237.809 37.8867 253.348 37.8867V37.8992Z" fill="#14232F"/>
<path d="M253.348 43.7837H373.489C385.768 43.7837 395.736 53.7322 395.736 65.9871V358.097C395.736 370.352 385.768 380.301 373.489 380.301H253.348C241.069 380.301 231.101 370.352 231.101 358.097V65.9996C231.101 53.7447 241.069 43.7962 253.348 43.7962V43.7837Z" fill="#F8FCFF"/>
<path d="M400.358 107.676V84.6372C402.207 84.6372 403.706 86.1332 403.706 87.9658V104.335C403.706 106.18 402.207 107.663 400.358 107.663V107.676Z" fill="#14232F"/>
<path d="M400.358 138.145V115.106C402.207 115.106 403.706 116.602 403.706 118.435V134.804C403.706 136.649 402.207 138.145 400.358 138.145Z" fill="#14232F"/>
<path d="M328.845 60.3519H297.992C294.594 60.3519 291.833 57.5967 291.833 54.2057C291.833 50.8147 294.582 48.0596 297.992 48.0596H328.845C332.255 48.0596 335.003 50.8147 335.003 54.2057C335.003 57.5967 332.255 60.3519 328.845 60.3519Z" fill="#14232F"/>
<path d="M273.609 108.923V78.7529H284.201C287.874 78.7529 290.659 79.4511 292.546 80.8598C294.444 82.2561 295.394 84.3131 295.394 87.0309C295.394 88.5145 295.019 89.811 294.257 90.933C293.495 92.055 292.433 92.8903 291.084 93.4139C292.633 93.8004 293.857 94.5858 294.744 95.7577C295.631 96.9296 296.081 98.3632 296.081 100.071C296.081 102.976 295.156 105.17 293.295 106.666C291.434 108.162 288.798 108.923 285.363 108.948H273.609V108.923ZM279.83 91.3943H284.439C287.587 91.3444 289.148 90.0853 289.148 87.6418C289.148 86.2704 288.748 85.2856 287.949 84.6871C287.149 84.0887 285.9 83.7895 284.177 83.7895H279.817V91.3943H279.83ZM279.83 95.7826V103.923H285.163C286.637 103.923 287.774 103.574 288.598 102.876C289.423 102.178 289.835 101.218 289.835 99.9839C289.835 97.2163 288.399 95.82 285.538 95.7826H279.83Z" fill="#87D4C7"/>
<path d="M307.373 108.923H301.14V78.7529H307.373V108.923Z" fill="#87D4C7"/>
<path d="M319.364 103.936H332.593V108.935H313.131V78.7656H319.364V103.949V103.936Z" fill="#87D4C7"/>
<path d="M342.398 103.936H355.626V108.935H336.165V78.7656H342.398V103.949V103.936Z" fill="#87D4C7"/>
<path d="M369.429 123.172H306.786C306.286 123.172 305.886 122.773 305.886 122.275C305.886 121.776 306.286 121.377 306.786 121.377H369.429C369.929 121.377 370.329 121.776 370.329 122.275C370.329 122.773 369.929 123.172 369.429 123.172Z" fill="#88CEFC"/>
<path d="M299.116 123.172H259.806C259.306 123.172 258.907 122.773 258.907 122.275C258.907 121.776 259.306 121.377 259.806 121.377H299.116C299.616 121.377 300.015 121.776 300.015 122.275C300.015 122.773 299.616 123.172 299.116 123.172Z" fill="#88CEFC"/>
<path d="M341.187 130.241H273.06C272.56 130.241 272.16 129.842 272.16 129.343C272.16 128.845 272.56 128.446 273.06 128.446H341.187C341.687 128.446 342.086 128.845 342.086 129.343C342.086 129.842 341.674 130.241 341.187 130.241Z" fill="#88CEFC"/>
<path d="M374.663 130.241H348.869C348.369 130.241 347.969 129.842 347.969 129.343C347.969 128.845 348.369 128.446 348.869 128.446H374.663C375.163 128.446 375.562 128.845 375.562 129.343C375.562 129.842 375.163 130.241 374.663 130.241Z" fill="#88CEFC"/>
<path d="M265.39 130.241H254.572C254.073 130.241 253.673 129.842 253.673 129.343C253.673 128.845 254.073 128.446 254.572 128.446H265.39C265.889 128.446 266.289 128.845 266.289 129.343C266.289 129.842 265.889 130.241 265.39 130.241Z" fill="#88CEFC"/>
<path d="M303.65 137.297H260.73C260.231 137.297 259.831 136.898 259.831 136.4C259.831 135.901 260.231 135.502 260.73 135.502H303.65C304.15 135.502 304.55 135.901 304.55 136.4C304.55 136.898 304.138 137.297 303.65 137.297Z" fill="#88CEFC"/>
<path d="M368.505 137.297H311.345C310.846 137.297 310.446 136.898 310.446 136.4C310.446 135.901 310.846 135.502 311.345 135.502H368.505C369.005 135.502 369.405 135.901 369.405 136.4C369.405 136.898 369.005 137.297 368.505 137.297Z" fill="#88CEFC"/>
<path d="M330.557 158.59H334.716C335.566 158.59 336.265 159.288 336.265 160.136V172.03C336.265 172.877 335.566 173.575 334.716 173.575H330.557C329.707 173.575 329.008 172.89 329.008 172.03V160.136C329.008 159.288 329.707 158.59 330.557 158.59Z" fill="#3A8F92"/>
<path d="M343.81 158.59H339.65C338.795 158.59 338.102 159.282 338.102 160.136V172.03C338.102 172.883 338.795 173.575 339.65 173.575H343.81C344.665 173.575 345.359 172.883 345.359 172.03V160.136C345.359 159.282 344.665 158.59 343.81 158.59Z" fill="#3A8F92"/>
<path d="M352.904 158.59H348.744C347.889 158.59 347.195 159.282 347.195 160.136V172.03C347.195 172.883 347.889 173.575 348.744 173.575H352.904C353.759 173.575 354.453 172.883 354.453 172.03V160.136C354.453 159.282 353.759 158.59 352.904 158.59Z" fill="#3A8F92"/>
<path d="M360.936 158.59H365.095C365.945 158.59 366.644 159.288 366.644 160.136V172.03C366.644 172.877 365.945 173.575 365.095 173.575H360.936C360.086 173.575 359.387 172.89 359.387 172.03V160.136C359.387 159.288 360.086 158.59 360.936 158.59Z" fill="#3A8F92"/>
<path d="M374.188 158.59H370.029C369.173 158.59 368.48 159.282 368.48 160.136V172.03C368.48 172.883 369.173 173.575 370.029 173.575H374.188C375.044 173.575 375.737 172.883 375.737 172.03V160.136C375.737 159.282 375.044 158.59 374.188 158.59Z" fill="#3A8F92"/>
<path d="M330.557 186.205H334.716C335.566 186.205 336.265 186.89 336.265 187.75V199.644C336.265 200.492 335.578 201.19 334.716 201.19H330.557C329.707 201.19 329.008 200.504 329.008 199.644V187.75C329.008 186.903 329.707 186.205 330.557 186.205Z" fill="#3A8F92"/>
<path d="M339.65 186.205H343.81C344.659 186.205 345.359 186.903 345.359 187.75V199.644C345.359 200.492 344.672 201.19 343.81 201.19H339.65C338.801 201.19 338.102 200.492 338.102 199.644V187.75C338.102 186.903 338.801 186.205 339.65 186.205Z" fill="#3A8F92"/>
<path d="M348.744 186.205H352.904C353.753 186.205 354.453 186.903 354.453 187.75V199.644C354.453 200.492 353.766 201.19 352.904 201.19H348.744C347.895 201.19 347.195 200.492 347.195 199.644V187.75C347.195 186.903 347.895 186.205 348.744 186.205Z" fill="#3A8F92"/>
<path d="M360.936 186.205H365.095C365.945 186.205 366.644 186.89 366.644 187.75V199.644C366.644 200.492 365.957 201.19 365.095 201.19H360.936C360.086 201.19 359.387 200.504 359.387 199.644V187.75C359.387 186.903 360.086 186.205 360.936 186.205Z" fill="#3A8F92"/>
<path d="M370.029 186.205H374.188C375.038 186.205 375.737 186.903 375.737 187.75V199.644C375.737 200.492 375.05 201.19 374.188 201.19H370.029C369.18 201.19 368.48 200.492 368.48 199.644V187.75C368.48 186.903 369.18 186.205 370.029 186.205Z" fill="#3A8F92"/>
<path d="M330.557 227.233H334.716C335.566 227.233 336.265 227.919 336.265 228.779V240.672C336.265 241.52 335.578 242.218 334.716 242.218H330.557C329.707 242.218 329.008 241.532 329.008 240.672V228.779C329.008 227.931 329.695 227.233 330.557 227.233Z" fill="#FFBD66"/>
<path d="M339.65 227.233H343.81C344.659 227.233 345.359 227.931 345.359 228.779V240.672C345.359 241.52 344.672 242.218 343.81 242.218H339.65C338.801 242.218 338.102 241.52 338.102 240.672V228.779C338.102 227.931 338.789 227.233 339.65 227.233Z" fill="#FFBD66"/>
<path d="M348.744 227.233H352.904C353.753 227.233 354.453 227.931 354.453 228.779V240.672C354.453 241.52 353.766 242.218 352.904 242.218H348.744C347.895 242.218 347.195 241.52 347.195 240.672V228.779C347.195 227.931 347.882 227.233 348.744 227.233Z" fill="#FFBD66"/>
<path d="M360.936 227.233H365.095C365.945 227.233 366.644 227.919 366.644 228.779V240.672C366.644 241.52 365.957 242.218 365.095 242.218H360.936C360.086 242.218 359.387 241.532 359.387 240.672V228.779C359.387 227.931 360.074 227.233 360.936 227.233Z" fill="#FFBD66"/>
<path d="M370.017 227.233H374.176C375.026 227.233 375.725 227.931 375.725 228.779V240.672C375.725 241.52 375.038 242.218 374.176 242.218H370.017C369.167 242.218 368.468 241.52 368.468 240.672V228.779C368.468 227.931 369.155 227.233 370.017 227.233Z" fill="#FFBD66"/>
<path d="M280.254 162.979H268.837C268.587 162.979 268.387 162.779 268.387 162.53C268.387 162.281 268.587 162.081 268.837 162.081H280.254C280.504 162.081 280.704 162.281 280.704 162.53C280.704 162.779 280.504 162.979 280.254 162.979Z" fill="#20759E"/>
<path d="M264.952 162.979H251.487C251.237 162.979 251.025 162.779 251.025 162.53C251.025 162.281 251.225 162.081 251.487 162.081H264.952C265.202 162.081 265.402 162.281 265.402 162.53C265.402 162.779 265.202 162.979 264.952 162.979Z" fill="#20759E"/>
<path d="M303.463 162.979H284.126C283.877 162.979 283.677 162.779 283.677 162.53C283.677 162.281 283.877 162.081 284.126 162.081H303.463C303.713 162.081 303.925 162.281 303.925 162.53C303.925 162.779 303.725 162.979 303.463 162.979Z" fill="#20759E"/>
<path d="M287.024 166.544H251.487C251.237 166.544 251.025 166.345 251.025 166.095C251.025 165.846 251.225 165.646 251.487 165.646H287.024C287.274 165.646 287.474 165.846 287.474 166.095C287.474 166.345 287.274 166.544 287.024 166.544Z" fill="#20759E"/>
<path d="M314.905 166.544H290.909C290.659 166.544 290.459 166.345 290.459 166.095C290.459 165.846 290.659 165.646 290.909 165.646H314.905C315.155 165.646 315.367 165.846 315.367 166.095C315.367 166.345 315.167 166.544 314.905 166.544Z" fill="#20759E"/>
<path d="M308.372 170.11H262.779C262.529 170.11 262.329 169.91 262.329 169.661C262.329 169.411 262.529 169.212 262.779 169.212H308.372C308.622 169.212 308.822 169.411 308.822 169.661C308.822 169.91 308.622 170.11 308.372 170.11Z" fill="#20759E"/>
<path d="M258.894 170.11H251.487C251.237 170.11 251.025 169.91 251.025 169.661C251.025 169.411 251.225 169.212 251.487 169.212H258.894C259.144 169.212 259.344 169.411 259.344 169.661C259.344 169.91 259.144 170.11 258.894 170.11Z" fill="#20759E"/>
<path d="M300.04 190.593H283.914C283.664 190.593 283.464 190.393 283.464 190.144C283.464 189.895 283.664 189.683 283.914 189.683H300.04C300.29 189.683 300.502 189.882 300.502 190.144C300.502 190.406 300.303 190.593 300.04 190.593Z" fill="#20759E"/>
<path d="M280.03 190.593H251.487C251.237 190.593 251.025 190.393 251.025 190.144C251.025 189.895 251.225 189.683 251.487 189.683H280.03C280.28 189.683 280.48 189.882 280.48 190.144C280.48 190.406 280.28 190.593 280.03 190.593Z" fill="#20759E"/>
<path d="M318.103 190.593H303.925C303.675 190.593 303.476 190.393 303.476 190.144C303.476 189.895 303.675 189.683 303.925 189.683H318.103C318.353 189.683 318.553 189.882 318.553 190.144C318.553 190.406 318.353 190.593 318.103 190.593Z" fill="#20759E"/>
<path d="M290.447 194.146H270.436C270.186 194.146 269.974 193.946 269.974 193.697C269.974 193.448 270.174 193.248 270.436 193.248H290.447C290.697 193.248 290.897 193.448 290.897 193.697C290.897 193.946 290.697 194.146 290.447 194.146Z" fill="#20759E"/>
<path d="M266.551 194.146H251.474C251.225 194.146 251.012 193.946 251.012 193.697C251.012 193.448 251.212 193.248 251.474 193.248H266.551C266.801 193.248 267.001 193.448 267.001 193.697C267.001 193.946 266.801 194.146 266.551 194.146Z" fill="#20759E"/>
<path d="M307.036 194.146H294.332C294.082 194.146 293.882 193.946 293.882 193.697C293.882 193.448 294.082 193.248 294.332 193.248H307.036C307.285 193.248 307.485 193.448 307.485 193.697C307.485 193.946 307.285 194.146 307.036 194.146Z" fill="#20759E"/>
<path d="M278.093 197.711H260.043C259.794 197.711 259.594 197.512 259.594 197.262C259.594 197.013 259.794 196.813 260.043 196.813H278.093C278.343 196.813 278.555 197.013 278.555 197.262C278.555 197.512 278.356 197.711 278.093 197.711Z" fill="#20759E"/>
<path d="M256.159 197.711H251.487C251.237 197.711 251.025 197.512 251.025 197.262C251.025 197.013 251.225 196.813 251.487 196.813H256.159C256.408 196.813 256.608 197.013 256.608 197.262C256.608 197.512 256.408 197.711 256.159 197.711Z" fill="#20759E"/>
<path d="M297.754 231.609H268.825C268.575 231.609 268.375 231.409 268.375 231.16C268.375 230.911 268.575 230.699 268.825 230.699H297.754C298.004 230.699 298.204 230.898 298.204 231.16C298.204 231.422 298.004 231.609 297.754 231.609Z" fill="#20759E"/>
<path d="M264.952 231.609H251.487C251.237 231.609 251.025 231.409 251.025 231.16C251.025 230.911 251.225 230.699 251.487 230.699H264.952C265.202 230.699 265.402 230.898 265.402 231.16C265.402 231.422 265.202 231.609 264.952 231.609Z" fill="#20759E"/>
<path d="M277.519 235.174H251.487C251.237 235.174 251.025 234.975 251.025 234.726C251.025 234.476 251.225 234.277 251.487 234.277H277.519C277.768 234.277 277.968 234.476 277.968 234.726C277.968 234.975 277.768 235.174 277.519 235.174Z" fill="#20759E"/>
<path d="M310.308 235.174H281.404C281.154 235.174 280.941 234.975 280.941 234.726C280.941 234.476 281.141 234.277 281.404 234.277H310.308C310.558 234.277 310.771 234.476 310.771 234.726C310.771 234.975 310.571 235.174 310.308 235.174Z" fill="#20759E"/>
<path d="M288.161 238.74H262.766C262.517 238.74 262.317 238.54 262.317 238.291C262.317 238.042 262.517 237.842 262.766 237.842H288.161C288.411 237.842 288.623 238.042 288.623 238.291C288.623 238.54 288.423 238.74 288.161 238.74Z" fill="#20759E"/>
<path d="M258.894 238.74H251.487C251.237 238.74 251.025 238.54 251.025 238.291C251.025 238.042 251.225 237.842 251.487 237.842H258.894C259.144 237.842 259.344 238.042 259.344 238.291C259.344 238.54 259.144 238.74 258.894 238.74Z" fill="#20759E"/>
<path d="M316.854 238.74H292.046C291.796 238.74 291.584 238.54 291.584 238.291C291.584 238.042 291.784 237.842 292.046 237.842H316.854C317.104 237.842 317.304 238.042 317.304 238.291C317.304 238.54 317.104 238.74 316.854 238.74Z" fill="#20759E"/>
<path d="M379.51 209.692H247.002C244.692 209.692 242.805 207.822 242.805 205.516V155.673C242.805 153.367 244.692 151.484 247.002 151.484H379.51C381.821 151.484 383.707 153.354 383.707 155.673V205.516C383.707 207.822 381.821 209.692 379.51 209.692ZM246.99 152.669C245.341 152.669 243.992 154.015 243.992 155.661V205.503C243.992 207.149 245.329 208.495 246.99 208.495H379.497C381.146 208.495 382.495 207.149 382.495 205.503V155.661C382.495 154.015 381.159 152.669 379.497 152.669H246.99Z" fill="#88CEFC"/>
<path d="M379.51 248.451H247.002C244.692 248.451 242.805 246.569 242.805 244.262V223.966C242.805 221.66 244.692 219.79 247.002 219.79H379.51C381.821 219.79 383.707 221.66 383.707 223.966V244.262C383.707 246.569 381.821 248.451 379.51 248.451ZM246.99 220.987C245.341 220.987 243.992 222.333 243.992 223.979V244.275C243.992 245.921 245.329 247.267 246.99 247.267H379.497C381.146 247.267 382.495 245.933 382.495 244.275V223.979C382.495 222.333 381.159 220.987 379.497 220.987H246.99Z" fill="#88CEFC"/>
<path d="M270.199 264.06H356.314C357.763 264.06 358.937 265.232 358.937 266.678V318.154C358.937 319.6 357.763 320.772 356.314 320.772H270.212C268.763 320.772 267.576 319.6 267.576 318.141V266.678C267.576 265.232 268.75 264.06 270.199 264.06Z" fill="#398FB9"/>
<path d="M358.924 274.47H267.563V285.141H358.924V274.47Z" fill="#224A5F"/>
<path d="M276.344 297.035V296.698C276.344 296.312 276.657 296 277.044 296H304.575C304.962 296 305.274 296.312 305.274 296.698V297.035C305.274 297.421 304.962 297.746 304.562 297.746H277.031C276.644 297.746 276.319 297.434 276.319 297.035H276.344Z" fill="#88CEFC"/>
<path d="M276.357 303.991V303.667C276.357 303.281 276.669 302.969 277.056 302.969H304.587C304.974 302.969 305.287 303.281 305.287 303.667V303.991C305.287 304.378 304.974 304.689 304.587 304.689H277.056C276.669 304.689 276.357 304.378 276.357 303.991Z" fill="#88CEFC"/>
<path d="M335.016 297.733H346.758C348.456 297.733 349.83 299.104 349.83 300.8V305.774C349.83 307.469 348.456 308.841 346.758 308.841H335.016C333.317 308.841 331.943 307.469 331.943 305.774V300.8C331.943 299.104 333.317 297.733 335.016 297.733Z" fill="#88CEFC"/>
<path d="M351.729 342.551C351.729 349.545 345.996 355.267 338.988 355.267H288.024C281.016 355.267 275.283 349.545 275.283 342.551C275.283 335.557 281.016 329.835 288.024 329.835H338.988C345.996 329.835 351.729 335.557 351.729 342.551Z" fill="#3A8F92"/>
<path d="M302.763 344.11V348.323H300.29V336.368H304.962C305.861 336.368 306.648 336.53 307.335 336.854C308.022 337.178 308.547 337.652 308.909 338.25C309.271 338.861 309.459 339.547 309.459 340.32C309.459 341.492 309.059 342.414 308.247 343.087C307.448 343.761 306.336 344.097 304.912 344.097H302.751L302.763 344.11ZM302.763 342.115H304.962C305.611 342.115 306.111 341.965 306.461 341.654C306.81 341.342 306.973 340.906 306.973 340.345C306.973 339.784 306.798 339.285 306.448 338.923C306.098 338.562 305.624 338.375 305.012 338.362H302.751V342.115H302.763Z" fill="white"/>
<path d="M316.454 345.855H312.132L311.307 348.323H308.684L313.143 336.368H315.429L319.914 348.323H317.291L316.454 345.855ZM312.794 343.86H315.792L314.28 339.385L312.794 343.86Z" fill="white"/>
<path d="M323.924 341.753L326.422 336.368H329.12L325.185 343.985V348.323H322.675V343.985L318.74 336.368H321.45L323.924 341.753Z" fill="white"/>
<path d="M484.236 380.089C484.761 379.253 485.173 378.368 485.423 377.383C486.023 374.915 485.46 372.11 483.274 370.577C481.188 369.118 478.365 369.317 476.054 370.053C474.98 370.402 473.931 370.863 472.944 371.412C473.918 370.003 474.818 368.544 475.617 367.023C476.966 364.468 478.278 360.99 475.93 358.583C474.118 356.726 471.12 356.763 468.76 357.237C465.649 357.86 462.564 359.257 459.841 360.865C459.104 361.301 458.379 361.775 457.667 362.261C459.766 358.945 461.452 355.367 462.639 351.627C464.2 346.727 465.862 339.11 460.553 335.782C455.257 332.453 448.324 336.791 443.977 339.821C438.693 343.511 434.159 348.124 430.224 353.198C427.126 357.212 424.403 361.488 421.942 365.914C421.942 364.717 421.742 363.558 421.268 362.511C419.656 358.933 415.684 361.239 413.598 362.947C408.352 367.211 404.792 373.444 403.705 380.089H484.249H484.236Z" fill="#87D4C7"/>
<path d="M447.462 351.677C443.302 361.338 440.379 371.474 438.781 381.859C438.706 382.357 439.468 382.569 439.543 382.071C441.129 371.761 444.014 361.663 448.149 352.076C448.349 351.614 447.662 351.203 447.462 351.677Z" fill="#1C6F73"/>
<path d="M467.248 362.922C461.627 368.233 457.243 374.703 454.357 381.884C454.17 382.358 454.944 382.57 455.132 382.096C457.955 375.052 462.302 368.707 467.81 363.495C468.185 363.146 467.623 362.585 467.248 362.934V362.922Z" fill="#1C6F73"/>
<path d="M478.365 372.596C475.092 374.703 472.694 378.518 470.683 381.772C470.408 382.208 471.108 382.607 471.37 382.171C472.432 380.438 473.593 378.767 474.855 377.172C476.004 375.725 477.203 374.292 478.765 373.282C479.19 373.008 478.79 372.322 478.365 372.596Z" fill="#1C6F73"/>
<path d="M416.121 367.098C414.46 371.898 413.536 376.897 413.373 381.971C413.361 382.482 414.148 382.482 414.173 381.971C414.335 376.96 415.259 372.048 416.896 367.31C417.071 366.824 416.296 366.624 416.134 367.098H416.121Z" fill="#1C6F73"/>
<path d="M436.819 365.478C437.844 368.445 438.993 371.362 440.267 374.217C440.479 374.678 441.166 374.279 440.954 373.818C439.705 371.013 438.581 368.158 437.581 365.266C437.419 364.78 436.645 364.991 436.807 365.478H436.819Z" fill="#1C6F73"/>
<path d="M473.556 373.245C473.456 374.653 473.481 376.062 473.606 377.471C473.656 377.97 474.443 377.982 474.406 377.471C474.281 376.062 474.256 374.653 474.356 373.245C474.393 372.734 473.594 372.734 473.556 373.245Z" fill="#1C6F73"/>
<path d="M416.608 373.232C415.809 374.192 415.009 375.152 414.21 376.099C413.885 376.486 414.447 377.059 414.772 376.66C415.572 375.713 416.371 374.753 417.17 373.793C417.495 373.406 416.933 372.833 416.608 373.232Z" fill="#1C6F73"/>
<path d="M464.625 165.659L469.996 165.46C469.984 163.44 469.971 161.408 469.959 159.389C470.683 158.03 470.933 156.459 470.808 154.926C470.683 153.442 470.171 152.121 470.633 150.637C471.033 149.353 471.483 145.413 470.396 145.064C468.859 144.578 465.737 147.595 464.937 148.742C464.275 149.689 464.213 150.787 464.25 151.896C464.375 154.801 464.875 157.668 465.437 160.511C465.162 162.231 464.9 163.939 464.637 165.659H464.625Z" fill="#FDA78C"/>
<path d="M501.512 164.886L496.141 164.961C496.053 162.941 495.966 160.922 495.878 158.89C495.091 157.568 494.766 156.022 494.804 154.477C494.854 152.993 495.304 151.647 494.766 150.175C494.304 148.916 493.667 145.002 494.729 144.603C496.24 144.042 499.513 146.909 500.363 147.994C501.075 148.904 501.187 150.001 501.199 151.11C501.212 154.015 500.85 156.908 500.438 159.775C500.787 161.47 501.15 163.178 501.499 164.874L501.512 164.886Z" fill="#FDA78C"/>
<path d="M506.958 201.626C506.958 201.626 507.82 194.694 508.219 191.553C508.219 191.553 507.282 190.019 507.582 187.987C507.395 187.987 506.283 176.518 504.035 176.169C499.126 175.396 496.665 175.595 495.078 176.518C494.042 177.927 493.692 179.472 492.818 181.829C490.981 186.778 491.031 191.515 493.117 194.034C494.192 195.33 496.552 195.58 498.064 195.318L496.727 201.626C496.727 201.626 502.623 202.461 506.945 201.626H506.958Z" fill="#FDA78C"/>
<path d="M493.417 180.133C493.929 179.348 497.352 174.673 499.351 175.87C503.36 178.263 502.186 183.15 503.185 184.995C504.297 187.065 504.697 187.376 504.747 187.327C506.87 189.408 507.32 192.276 507.557 195.156C507.557 195.293 507.707 195.418 507.845 195.33C510.905 193.635 513.616 191.341 515.002 188.05C515.714 186.367 516.164 184.422 516.301 182.464C517.113 182.602 517.963 182.602 518.775 182.452C522.797 181.692 526.819 176.206 523.833 172.454C522.372 170.621 519.861 170.097 517.638 170.484C515.864 170.796 514.265 171.718 513.041 173.015C511.979 172.017 510.768 171.157 509.506 170.446C506.983 169.025 503.985 168.29 501.274 169.3C499.688 168.863 498.064 169.038 496.628 169.923C493.38 171.918 493.48 178.051 493.405 180.121L493.417 180.133Z" fill="#402013"/>
<path d="M507.308 187.838C506.396 188.885 505.097 189.259 504.397 188.66C503.698 188.062 503.872 186.716 504.772 185.668C505.684 184.621 506.808 184.447 507.52 185.045C508.219 185.643 508.219 186.79 507.308 187.838Z" fill="#FDA78C"/>
<path d="M498.239 195.268C499.925 195.256 501.624 194.981 503.11 194.159C503.335 194.034 503.535 194.371 503.31 194.495C501.761 195.355 499.987 195.642 498.239 195.667C497.989 195.667 497.989 195.281 498.239 195.281V195.268Z" fill="#F5816C"/>
<path d="M555.661 310.212L558.147 315.274L546.343 322.642L539.435 316.845L555.661 310.212Z" fill="#FDA78C"/>
<path d="M565.704 320.672C567.703 319.899 566.116 316.633 565.442 314.962C564.58 312.868 563.018 309.514 561.27 308.429C559.533 307.37 555.799 309.975 554.674 310.673C554.674 310.673 557.06 313.877 557.223 315.872C558.034 316.383 558.821 317.131 559.571 317.73C560.558 318.515 561.545 319.313 562.644 319.949C563.543 320.46 564.68 321.071 565.704 320.672Z" fill="#14232F"/>
<path d="M510.893 380.151L505.259 380.625L502.624 366.986L510.156 366.45L510.893 380.151Z" fill="#FDA78C"/>
<path d="M497.49 385.712C497.49 387.843 501.112 387.557 502.923 387.519C505.197 387.469 508.894 387.232 510.53 385.986C512.154 384.752 511.068 380.338 510.818 379.029C510.818 379.029 506.958 380.101 505.034 379.528C504.26 380.089 503.273 380.563 502.449 381.049C501.349 381.685 500.25 382.308 499.263 383.106C498.464 383.754 497.477 384.59 497.477 385.699L497.49 385.712Z" fill="#14232F"/>
<path d="M463.663 191.154C464.4 195.094 466.636 198.248 469.297 201.153C474.643 206.975 480.539 212.298 486.335 217.684C485.248 221.922 484.399 226.223 483.749 230.562C481.638 244.811 480.876 259.235 481.026 273.622C481.188 289.542 477.928 301.311 477.928 301.311C479.752 303.031 484.061 306.41 489.745 307.295L496.74 201.639C490.944 198.547 480.976 192.151 473.719 186.504C472.857 178.762 471.508 171.357 470.109 162.717L465.012 162.318C464.225 167.529 462.851 186.866 463.663 191.167V191.154Z" fill="#88CEFC"/>
<path d="M485.835 253.414H517.151C521.723 271.042 524.521 289.119 525.383 307.308C525.508 309.988 525.595 312.668 525.633 315.349C532.203 313.516 542.696 311.596 549.528 311.671C550.777 314.239 552.027 316.807 553.276 319.376C547.342 325.023 537.512 331.867 529.942 335.271C526.432 336.854 522.472 338.176 518.625 337.091C516.926 336.617 515.452 335.732 514.128 334.635C514.116 337.876 513.866 341.143 513.703 344.372C513.454 349.246 513.166 354.121 512.854 358.983C512.542 363.845 512.229 368.694 511.842 373.544H502.636C497.39 359.257 492.818 344.334 489.558 329.499C487.834 321.657 486.26 313.778 485.76 305.762C485.248 297.509 485.286 289.193 485.136 280.928C484.948 271.752 484.724 262.552 485.835 253.426V253.414Z" fill="#3A8F92"/>
<path d="M485.673 251.992C486.073 246.158 486.335 240.298 487.022 234.489C487.659 229.178 488.683 223.904 490.095 218.743C491.719 212.809 494.142 207.199 496.728 201.614C497.49 201.564 498.314 201.501 499.151 201.451C503.673 201.14 508.807 200.828 508.807 200.828V253.451C503.311 253.5 498.651 256.891 493.318 257.814C491.219 258.176 489.008 258.176 486.997 257.378C486.335 257.116 485.548 256.729 485.548 256.729C485.498 255.794 485.586 252.827 485.648 251.992H485.673Z" fill="#30617A"/>
<path d="M495.478 162.056C494.304 174 495.553 184.497 496.016 189.122C496.74 196.328 499.388 198.846 507.408 208.919C503.985 217.472 504.347 232.731 505.521 244.699C508.22 271.939 509.181 284.493 505.984 308.18C505.984 308.18 529.142 304.44 532.228 296.935C529.367 280.454 524.371 262.801 522.297 256.617C520.598 251.543 519.924 244.699 524.071 229.452C525.145 225.513 526.969 214.542 526.657 210.465C526.232 204.83 524.021 200.355 518.999 198.036C517.426 196.789 515.464 195.43 513.941 194.134C509.893 190.693 506.458 188.81 505.971 186.242C504.734 179.635 503.385 170.422 501.312 161.62L495.453 162.069L495.478 162.056Z" fill="#88CEFC"/>
<path d="M507.82 209.268C510.98 212.447 514.315 215.439 517.825 218.232C518.025 218.381 517.776 218.693 517.576 218.531C514.066 215.739 510.73 212.746 507.57 209.567C507.395 209.393 507.645 209.081 507.82 209.268Z" fill="#65BCEB"/>
<path d="M486.023 217.222C487.534 212.535 489.395 207.959 491.594 203.546C491.706 203.322 492.043 203.521 491.931 203.746C489.757 208.134 487.909 212.672 486.397 217.322C486.322 217.559 485.935 217.459 486.023 217.222Z" fill="#65BCEB"/>
<path d="M514.015 335.021C502.536 322.093 497.027 305.387 493.617 288.744C493.567 288.495 493.954 288.395 494.004 288.644C497.402 305.213 502.873 321.881 514.303 334.759C514.465 334.946 514.19 335.22 514.028 335.033L514.015 335.021Z" fill="#1C6F73"/>
<path d="M489.932 256.43C489.27 248.539 490.507 240.685 491.756 232.918C491.793 232.669 492.181 232.768 492.131 233.018C490.882 240.759 489.67 248.564 490.319 256.43C490.344 256.68 489.945 256.68 489.92 256.43H489.932Z" fill="#224A5F"/>
<path d="M492.418 247.404C493.592 239.326 496.315 231.547 500.437 224.49C500.562 224.278 500.912 224.465 500.775 224.69C496.665 231.709 493.967 239.451 492.805 247.504C492.768 247.753 492.393 247.654 492.43 247.404H492.418Z" fill="#224A5F"/>
<path d="M198.486 376.536H146.772C146.298 376.536 145.911 376.149 145.911 375.675V369.517C145.911 369.043 146.298 368.657 146.772 368.657H198.486C198.961 368.657 199.348 369.043 199.348 369.517V375.675C199.348 376.149 198.961 376.536 198.486 376.536Z" fill="#FFBD66"/>
<path d="M152.431 376.536H174.315V368.657H152.431V376.536Z" fill="#FFC982"/>
<path d="M146.785 368.644H198.436V367.721H146.785V368.644Z" fill="#FFA53D"/>
<path d="M146.785 377.446H198.436V376.523H146.785V377.446Z" fill="#FFA53D"/>
<path d="M198.486 367.722H146.772C146.298 367.722 145.911 367.335 145.911 366.862V360.703C145.911 360.229 146.298 359.843 146.772 359.843H198.486C198.961 359.843 199.348 360.229 199.348 360.703V366.862C199.348 367.335 198.961 367.722 198.486 367.722Z" fill="#FFBD66"/>
<path d="M152.431 367.722H174.315V359.843H152.431V367.722Z" fill="#FFC982"/>
<path d="M146.785 359.842H198.436V358.92H146.785V359.842Z" fill="#FFA53D"/>
<path d="M198.486 385.337H146.772C146.298 385.337 145.911 384.951 145.911 384.477V378.318C145.911 377.845 146.298 377.458 146.772 377.458H198.486C198.961 377.458 199.348 377.845 199.348 378.318V384.489C199.348 384.963 198.961 385.35 198.486 385.35V385.337Z" fill="#FFBD66"/>
<path d="M152.431 385.337H174.315V377.446H152.431V385.337Z" fill="#FFC982"/>
<path d="M198.486 358.92H146.772C146.298 358.92 145.911 358.533 145.911 358.06V351.901C145.911 351.427 146.298 351.041 146.772 351.041H198.486C198.961 351.041 199.348 351.427 199.348 351.901V358.06C199.348 358.533 198.961 358.92 198.486 358.92Z" fill="#FFBD66"/>
<path d="M152.431 358.92H174.315V351.041H152.431V358.92Z" fill="#FFC982"/>
<path d="M198.486 350.106H146.772C146.298 350.106 145.911 349.719 145.911 349.246V343.087C145.911 342.613 146.298 342.227 146.772 342.227H198.486C198.961 342.227 199.348 342.613 199.348 343.087V349.246C199.348 349.719 198.961 350.106 198.486 350.106Z" fill="#FFBD66"/>
<path d="M152.431 350.106H174.315V342.214H152.431V350.106Z" fill="#FFC982"/>
<path d="M146.785 351.028H198.436V350.106H146.785V351.028Z" fill="#FFA53D"/>
<path d="M168.857 368.32C168.857 380.039 159.339 389.539 147.597 389.539C135.855 389.539 126.337 380.039 126.337 368.32C126.337 356.601 135.855 347.102 147.597 347.102C159.339 347.102 168.857 356.601 168.857 368.32Z" fill="#FFBD66"/>
<path d="M147.597 385.474C138.128 385.474 130.421 377.782 130.421 368.333C130.421 358.883 138.128 351.178 147.597 351.178C157.065 351.178 164.785 358.87 164.785 368.333C164.785 377.795 157.078 385.474 147.597 385.474ZM147.597 351.565C138.341 351.565 130.809 359.082 130.809 368.32C130.809 377.558 138.341 385.076 147.597 385.076C156.853 385.076 164.385 377.558 164.385 368.32C164.385 359.082 156.853 351.565 147.597 351.565Z" fill="#FFA53D"/>
<path d="M150.77 372.908C150.77 372.222 150.52 371.636 150.045 371.162C149.558 370.689 148.734 370.252 147.584 369.878C145.973 369.392 144.811 368.756 144.074 367.958C143.337 367.173 142.975 366.176 142.975 364.966C142.975 363.757 143.337 362.722 144.049 361.925C144.774 361.139 145.761 360.665 147.022 360.516V358.883C147.022 358.421 147.397 358.047 147.859 358.047C148.321 358.047 148.696 358.421 148.696 358.883V360.528C149.958 360.703 150.945 361.226 151.657 362.124C152.169 362.772 152.493 363.595 152.643 364.592C152.731 365.216 152.231 365.764 151.607 365.764C151.094 365.764 150.657 365.39 150.57 364.879C150.47 364.218 150.233 363.67 149.883 363.221C149.371 362.598 148.696 362.286 147.834 362.286C146.972 362.286 146.248 362.523 145.773 362.984C145.298 363.445 145.061 364.094 145.061 364.929C145.061 365.702 145.311 366.313 145.811 366.762C146.31 367.223 147.135 367.634 148.284 368.008C149.433 368.382 150.332 368.794 150.982 369.243C151.632 369.691 152.106 370.215 152.406 370.801C152.706 371.399 152.868 372.097 152.868 372.895C152.868 374.167 152.481 375.189 151.719 375.962C150.957 376.735 149.883 377.196 148.496 377.334V378.655C148.496 379.116 148.121 379.49 147.659 379.49C147.197 379.49 146.822 379.116 146.822 378.655V377.334C145.423 377.209 144.324 376.71 143.525 375.838C142.95 375.214 142.588 374.441 142.425 373.494C142.313 372.87 142.825 372.297 143.462 372.297C143.974 372.297 144.399 372.658 144.487 373.157C144.599 373.793 144.849 374.304 145.236 374.703C145.786 375.264 146.573 375.551 147.572 375.551C148.571 375.551 149.333 375.314 149.908 374.84C150.47 374.366 150.757 373.718 150.757 372.895L150.77 372.908Z" fill="#FFA53D"/>
<path d="M117.018 197.337L114.395 217.259C114.358 217.559 114.583 217.82 114.882 217.82H123.976C124.226 217.82 124.426 217.633 124.463 217.397L127.086 197.475C127.124 197.175 126.899 196.914 126.599 196.914H117.506C117.256 196.914 117.056 197.101 117.018 197.337Z" fill="#14232F"/>
<path d="M68.2397 375.675L73.8233 378.493L82.155 365.552L74.6478 361.912L68.2397 375.675Z" fill="#F5816C"/>
<path d="M78.9324 383.505C78.2453 382.283 77.371 381.174 76.5215 380.077C75.872 379.241 75.0476 378.356 74.4855 377.446C72.2745 377.234 68.7645 374.554 68.7645 374.554C67.9775 375.788 65.0296 379.877 66.1913 381.809C67.3655 383.767 71.0629 385.537 73.3737 386.522C75.21 387.295 78.8324 389.09 79.7068 386.896C80.169 385.761 79.507 384.502 78.9449 383.492L78.9324 383.505Z" fill="#14232F"/>
<path d="M128.91 210.303C128.036 208.744 123.314 203.384 121.678 202.898C120.428 202.524 119.804 203.309 119.629 204.518C119.054 208.657 123.339 209.792 123.077 212.846C122.877 215.227 121.115 215.876 120.916 218.307C120.791 219.815 121.228 221.261 122.152 222.408C119.991 226.634 115.819 233.79 113.208 237.755C111.734 234.775 110.136 231.06 108.312 228.28L95.8081 238.802C99.9552 245.235 106.113 256.168 110.673 255.956C113.821 255.807 118.692 252.54 123.164 241.37C125.188 236.309 126.274 227.881 127.224 222.383C128.535 218.656 130.297 212.809 128.897 210.315L128.91 210.303Z" fill="#FDA78C"/>
<path d="M48.7534 271.453C46.6049 266.765 44.9311 260.008 43.4946 255.047C44.6313 250.409 45.818 247.716 47.3294 243.178C42.7576 240.261 32.0276 236.296 32.0276 236.296C30.7035 241.096 29.2296 246.27 29.1171 251.282C29.0047 256.019 31.3656 260.357 33.564 264.409C37.886 272.375 43.2822 279.693 48.7534 286.899V271.44V271.453Z" fill="#FDA78C"/>
<path d="M69.1143 378.293L62.8562 378.381L61.0325 363.121H69.3766L69.1143 378.293Z" fill="#FDA78C"/>
<path d="M69.0018 376.997C68.3647 376.087 67.1531 375.788 66.0289 375.95C64.6923 376.149 62.6562 377.608 61.3821 380.338C60.4328 382.358 59.6583 384.888 60.8075 386.883C61.4321 387.98 62.5313 388.653 63.768 388.865C64.9546 389.065 66.4411 389.052 67.5153 388.466C68.6271 387.855 69.3266 386.696 69.5264 385.474C69.7638 384.003 69.8262 382.445 69.8637 380.961C69.9012 379.615 69.8012 378.144 69.0018 376.997Z" fill="#23323F"/>
<path d="M106.088 218.095C103.74 214.704 101.317 211.226 98.1814 208.508C95.0711 205.803 91.1364 204.294 87.3515 202.81C81.7055 200.604 80.0941 199.644 75.8596 198.809L65.5043 198.41C61.4196 198.858 53.9624 201.314 51.1143 202.274C48.9159 203.022 46.3302 203.646 44.469 205.054C36.7869 210.926 29.1047 237.194 29.1047 237.194C29.1047 237.194 42.7077 244.861 45.1935 245.971C45.4058 250.147 45.6307 254.336 45.843 258.512H94.509L95.8955 241.109C102.004 237.668 106.563 234.875 112.272 230.786C112.421 230.674 108.662 221.822 106.076 218.095H106.088Z" fill="#88CEFC"/>
<path d="M75.8845 199.444L75.822 195.891C77.3584 196.427 79.8442 196.564 81.1808 195.405C83.7665 193.148 84.6284 188.237 83.5666 182.801C83.0545 180.195 82.967 178.55 82.1176 176.904C80.6312 175.682 78.1079 175.059 72.8866 175.034C70.4882 175.034 67.4154 186.728 67.2155 186.703C67.1781 188.86 65.9539 190.294 65.9539 190.294C65.829 193.622 65.4792 198.908 65.4792 198.908C69.8137 200.504 75.8845 199.457 75.8845 199.457V199.444Z" fill="#FDA78C"/>
<path d="M75.6472 195.804C73.9734 195.28 72.3495 194.495 71.1129 193.223C70.9255 193.036 70.6382 193.323 70.8131 193.522C72.0997 194.844 73.786 195.667 75.5348 196.203C75.7846 196.278 75.897 195.879 75.6347 195.804H75.6472Z" fill="#F5816C"/>
<path d="M102.728 313.84C101.392 304.939 95.296 265.07 95.296 265.07L95.6707 265.02C95.6707 265.02 95.3335 259.871 95.1211 257.876C95.1211 257.876 92.6353 257.814 91.8859 257.827C90.237 245.759 88.3134 233.728 86.1149 221.735L83.7665 221.71C84.3911 214.579 84.8408 209.019 85.2405 201.875L81.3557 200.317C80.956 207.461 80.5188 214.542 79.9067 221.673C67.1906 221.573 71.9998 221.61 59.2837 221.511C58.784 214.317 58.4842 207.186 58.2344 199.98L54.3246 201.177C54.5745 208.333 54.9117 214.218 55.4114 221.361L52.4135 221.423C51.689 228.068 51.0144 235.037 50.3024 241.682C49.7278 246.993 49.1158 252.316 48.8035 257.652C47.3045 257.739 45.5558 257.702 45.5558 257.702C45.4308 260.395 45.5558 264.771 45.5558 264.771H45.7806C44.469 299.728 53.9249 356.327 60.995 373.893L70.4009 372.447C70.4134 372.172 70.4259 371.886 70.4384 371.611L76.8714 374.927C84.3411 364.493 97.7193 340.12 99.3806 336.455C102.366 329.822 104.502 325.634 102.741 313.828L102.728 313.84ZM70.8381 361.563C72.9616 342.19 72.5869 320.472 72.8742 296.885C75.7596 306.447 81.6805 323.24 80.5813 327.117C77.7832 336.978 70.9005 361.438 70.8381 361.563Z" fill="#30617A"/>
<path d="M89.625 178.064C89.4751 177.179 88.7506 176.555 87.9137 176.343C88.5507 175.321 88.2384 174.074 87.3516 173.451C87.8512 172.591 87.9386 171.544 87.3765 170.646C87.0518 170.122 86.6021 169.873 86.1024 169.561C85.6028 169.262 85.8276 169.487 85.7527 168.95C85.7027 168.601 85.6902 168.302 85.5653 167.966C85.0532 166.619 83.7416 165.884 82.38 165.672C81.8429 165.597 81.3308 165.634 80.8061 165.622C80.1566 165.597 80.319 165.634 79.9317 165.273C79.507 164.861 79.2447 164.5 78.6826 164.288C78.133 164.076 77.5459 164.051 76.9713 164.188C76.3717 164.338 75.3974 165.335 74.8228 165.136C74.623 165.061 74.2607 164.55 74.0484 164.4C73.7611 164.188 73.4363 164.026 73.099 163.901C72.4245 163.665 71.6875 163.627 70.988 163.789C70.276 163.964 69.6764 164.338 69.1643 164.836C68.5647 165.422 68.6022 165.522 67.4155 165.597C67.0657 165.622 66.7784 165.559 66.4412 165.659C65.6417 165.871 65.0297 166.432 64.6924 167.13C63.9429 167.18 63.1934 167.342 62.5814 167.791C62.2316 168.04 61.9568 168.377 61.7694 168.763C61.6945 168.938 61.6945 169.262 61.5946 169.387C61.4697 169.561 61.2698 169.561 61.045 169.636C59.4336 170.172 58.0845 172.042 59.2837 173.576C58.0346 174.947 57.2351 177.278 58.9339 178.55C57.4724 179.448 57.435 181.417 58.5717 182.44C58.4468 182.726 58.4093 183.038 58.4718 183.362C58.5967 183.961 59.0838 184.384 59.6459 184.447C59.1338 185.407 58.9464 186.591 59.496 187.588C59.9582 188.424 60.8326 188.922 61.7694 188.885C61.3447 190.381 62.4315 191.777 63.9804 191.715C63.7056 192.463 63.9304 193.385 64.6299 193.859C65.4669 194.433 66.666 193.996 67.1157 193.136C67.2531 192.874 67.2406 192.762 67.5154 192.6C67.7653 192.463 68.0151 192.351 68.2399 192.176C68.6771 191.84 69.0019 191.391 69.2142 190.88C69.6514 189.77 69.3392 188.523 68.5522 187.676C70.2011 187.376 70.6133 186.042 70.3385 184.534C72.387 184.696 73.3489 182.539 73.0116 181.056C73.3988 181.031 73.786 180.931 74.1233 180.732C74.9602 180.258 75.4224 179.373 75.5598 178.45C75.9845 179.011 76.709 179.323 77.4335 179.248C78.3329 179.148 79.0074 178.488 79.3946 177.702C79.8193 178.824 80.8936 179.684 82.1302 179.697C82.4925 179.697 82.6548 179.697 82.9671 179.585C83.1545 180.669 83.7541 184.023 83.7541 184.023C84.1163 184.522 85.0657 184.896 85.7152 184.808C86.2898 184.721 86.7395 184.26 86.8019 183.699C88.6631 183.711 89.6375 181.529 88.4508 180.158C89.2377 179.822 89.7499 178.949 89.6 178.076L89.625 178.064Z" fill="#14232F"/>
<path d="M67.5278 186.578C68.2898 187.825 69.5764 188.423 70.4008 187.912C71.2377 187.401 71.2752 185.992 70.5132 184.746C69.7512 183.499 68.602 183.125 67.7776 183.636C66.9532 184.147 66.7533 185.332 67.5153 186.578H67.5278Z" fill="#FDA78C"/>
<path d="M72.999 296.075C73.711 289.854 74.423 283.633 75.1475 277.424C75.1725 277.163 74.7603 277.163 74.7353 277.424C74.0233 283.645 73.2988 289.866 72.5868 296.075C72.5618 296.337 72.974 296.337 72.999 296.075Z" fill="#224A5F"/>
<path d="M76.5715 287.161C77.6333 282.087 78.695 277.013 79.7568 271.926C79.8067 271.664 79.407 271.552 79.3571 271.814C78.2953 276.888 77.2336 281.962 76.1718 287.049C76.1218 287.31 76.5215 287.423 76.5715 287.161Z" fill="#224A5F"/>
<path d="M49.1157 257.802C59.421 257.926 69.7388 258.013 80.0441 258.051C83.9039 258.051 87.7637 258.076 91.6235 258.051C91.8858 258.051 91.8858 257.639 91.6235 257.639C78.6201 257.689 65.6166 257.565 52.6132 257.428C51.4515 257.428 50.2774 257.403 49.1157 257.39C48.8534 257.39 48.8534 257.802 49.1157 257.802Z" fill="#224A5F"/>
<path d="M46.3925 264.92C55.1489 264.82 63.9053 264.733 72.6617 264.633C72.924 264.633 72.924 264.209 72.6617 264.222C63.9053 264.322 55.1489 264.409 46.3925 264.509C46.1302 264.509 46.1302 264.933 46.3925 264.92Z" fill="#224A5F"/>
<path d="M76.3841 264.696C81.4306 264.733 86.477 264.845 91.5235 265.045C91.7858 265.045 91.7858 264.646 91.5235 264.633C86.477 264.434 81.4306 264.322 76.3841 264.284C76.1093 264.284 76.1093 264.696 76.3841 264.696Z" fill="#224A5F"/>
<path d="M61.0199 232.631C62.3065 239.263 64.505 245.684 67.5654 251.73C67.6778 251.967 68.04 251.755 67.9276 251.518C64.8922 245.522 62.6938 239.126 61.4197 232.531C61.3697 232.27 60.97 232.382 61.0199 232.644V232.631Z" fill="#224A5F"/>
<path d="M64.6798 233.342C65.0296 236.645 65.6541 239.899 66.5535 243.091C66.6285 243.352 67.0282 243.24 66.9532 242.978C66.0664 239.824 65.4418 236.595 65.092 233.329C65.0671 233.067 64.6424 233.067 64.6798 233.329V233.342Z" fill="#224A5F"/>
<path d="M45.4183 245.859C44.6938 239.313 44.1941 232.731 43.9193 226.149C43.9068 225.887 43.4946 225.887 43.4946 226.149C43.7819 232.731 44.2691 239.301 44.9936 245.859C45.0186 246.12 45.4433 246.12 45.4058 245.859H45.4183Z" fill="#65BCEB"/>
<path d="M96.2328 241.158C96.6451 235.124 96.745 229.065 96.5201 223.019C96.5201 222.757 96.0954 222.745 96.1079 223.019C96.3203 229.065 96.2204 235.124 95.8081 241.158C95.7956 241.42 96.2079 241.42 96.2204 241.158H96.2328Z" fill="#65BCEB"/>
</g>
<defs>
<clipPath id="clip0_329_5600">
<rect width="590" height="404" fill="white"/>
</clipPath>
</defs>
</svg>
