<svg width="32" height="32" viewBox="0 0 32 32" fill="none" xmlns="http://www.w3.org/2000/svg">
<path d="M16 0.00102524C7.161 0.00102524 0 7.34903 0 16.4051C0 23.6567 4.584 29.8031 10.937 31.9716C11.74 32.1264 12.03 31.6189 12.03 31.1801C12.03 30.7905 12.021 29.7601 12.015 28.3924C7.562 29.3807 6.624 26.1871 6.624 26.1871C5.895 24.2965 4.843 23.789 4.843 23.789C3.395 22.775 4.958 22.7966 4.958 22.7966C6.562 22.9083 7.406 24.4831 7.406 24.4831C8.833 26.9929 11.15 26.267 12.067 25.8446C12.207 24.7876 12.624 24.0607 13.078 23.6557C9.526 23.2446 5.791 21.8349 5.791 15.549C5.791 13.7538 6.411 12.2918 7.436 11.1435C7.259 10.7324 6.717 9.06121 7.577 6.80154C7.577 6.80154 8.916 6.36376 11.977 8.48399C13.2808 8.11998 14.6257 7.93349 15.977 7.92932C17.337 7.93855 18.696 8.12105 19.977 8.48399C23.02 6.36376 24.358 6.80154 24.358 6.80154C25.217 9.06121 24.675 10.7313 24.519 11.1435C25.534 12.2918 26.154 13.7548 26.154 15.549C26.154 21.8492 22.414 23.2384 18.858 23.6393C19.414 24.1304 19.935 25.1403 19.935 26.673C19.935 28.8671 19.915 30.6346 19.915 31.1688C19.915 31.5953 20.195 32.1079 21.019 31.9429C27.419 29.797 31.998 23.6455 31.998 16.4041C31.998 7.348 24.837 0 15.998 0L16 0.00102524Z" fill="#FFC736"/>
</svg>
