<svg width="100" height="100" viewBox="0 0 100 100" fill="none" xmlns="http://www.w3.org/2000/svg">
<path d="M50.0001 74.9998C56.9445 74.9998 62.8126 72.5693 67.6042 67.7082C72.3959 62.8471 74.8612 56.9443 75.0001 49.9998V24.9998H50.0001C43.0556 25.1387 37.1529 27.604 32.2917 32.3957C27.4306 37.1873 25.0001 43.0554 25.0001 49.9998C25.0001 56.9443 27.4306 62.8471 32.2917 67.7082C37.1529 72.5693 43.0556 74.9998 50.0001 74.9998ZM45.1042 68.0207L64.2709 50.9373C64.8959 50.3818 65.0695 49.7221 64.7917 48.9582C64.514 48.1943 63.9584 47.7429 63.1251 47.604L48.1251 46.1457L57.0834 33.7498C57.2917 33.4026 57.414 33.0721 57.4501 32.7582C57.4862 32.4443 57.364 32.1498 57.0834 31.8748C56.8056 31.5276 56.4584 31.3721 56.0417 31.4082C55.6251 31.4443 55.2431 31.5998 54.8959 31.8748L35.8334 48.9582C35.2084 49.5137 35.0348 50.1735 35.3126 50.9373C35.5904 51.7012 36.1459 52.1526 36.9792 52.2915L51.9792 53.7498L42.9167 66.1457C42.7084 66.4929 42.6042 66.8221 42.6042 67.1332C42.6042 67.4443 42.7431 67.7401 43.0209 68.0207C43.2987 68.3012 43.6292 68.4401 44.0126 68.4373C44.3959 68.4346 44.7598 68.2957 45.1042 68.0207ZM50.0001 83.3332C46.1112 83.3332 42.4487 82.7248 39.0126 81.5082C35.5765 80.2915 32.4334 78.5734 29.5834 76.354L23.8542 82.0832C23.4376 82.4998 22.9695 82.8123 22.4501 83.0207C21.9306 83.229 21.3917 83.3332 20.8334 83.3332C19.6529 83.3332 18.664 82.9332 17.8667 82.1332C17.0695 81.3332 16.6695 80.3443 16.6667 79.1665C16.6667 78.6109 16.7709 78.0734 16.9792 77.554C17.1876 77.0346 17.5001 76.5651 17.9167 76.1457L23.6459 70.4165C21.4237 67.5693 19.7056 64.4276 18.4917 60.9915C17.2779 57.5554 16.6695 53.8915 16.6667 49.9998C16.6667 40.6943 19.8959 32.8123 26.3542 26.354C32.8126 19.8957 40.6945 16.6665 50.0001 16.6665H75.0001C77.2917 16.6665 79.2542 17.4818 80.8876 19.1123C82.5209 20.7429 83.3362 22.7054 83.3334 24.9998V49.9998C83.3334 59.3054 80.1042 67.1873 73.6459 73.6457C67.1876 80.104 59.3056 83.3332 50.0001 83.3332Z" fill="#FFBD66"/>
</svg>
