<svg width="100" height="100" viewBox="0 0 100 100" fill="none" xmlns="http://www.w3.org/2000/svg">
<path d="M20.8333 87.5C18.5417 87.5 16.5806 86.6847 14.95 85.0542C13.3194 83.4236 12.5028 81.4611 12.5 79.1667V20.8333C12.5 18.5417 13.3167 16.5806 14.95 14.95C16.5833 13.3194 18.5444 12.5028 20.8333 12.5H79.1667C81.4583 12.5 83.4208 13.3167 85.0542 14.95C86.6875 16.5833 87.5028 18.5444 87.5 20.8333V79.1667C87.5 81.4583 86.6847 83.4208 85.0542 85.0542C83.4236 86.6875 81.4611 87.5028 79.1667 87.5H20.8333ZM20.8333 79.1667H79.1667V20.8333H20.8333V79.1667ZM33.3333 41.6667C32.1528 41.6667 31.1639 42.0667 30.3667 42.8667C29.5694 43.6667 29.1694 44.6556 29.1667 45.8333V66.6667C29.1667 67.8472 29.5667 68.8375 30.3667 69.6375C31.1667 70.4375 32.1556 70.8361 33.3333 70.8333C34.5111 70.8306 35.5014 70.4306 36.3042 69.6333C37.1069 68.8361 37.5056 67.8472 37.5 66.6667V45.8333C37.5 44.6528 37.1 43.6639 36.3 42.8667C35.5 42.0694 34.5111 41.6694 33.3333 41.6667ZM50 29.1667C48.8194 29.1667 47.8306 29.5667 47.0333 30.3667C46.2361 31.1667 45.8361 32.1556 45.8333 33.3333V66.6667C45.8333 67.8472 46.2333 68.8375 47.0333 69.6375C47.8333 70.4375 48.8222 70.8361 50 70.8333C51.1778 70.8306 52.1681 70.4306 52.9708 69.6333C53.7736 68.8361 54.1722 67.8472 54.1667 66.6667V33.3333C54.1667 32.1528 53.7667 31.1639 52.9667 30.3667C52.1667 29.5694 51.1778 29.1694 50 29.1667ZM66.6667 54.1667C65.4861 54.1667 64.4972 54.5667 63.7 55.3667C62.9028 56.1667 62.5028 57.1556 62.5 58.3333V66.6667C62.5 67.8472 62.9 68.8375 63.7 69.6375C64.5 70.4375 65.4889 70.8361 66.6667 70.8333C67.8444 70.8306 68.8347 70.4306 69.6375 69.6333C70.4403 68.8361 70.8389 67.8472 70.8333 66.6667V58.3333C70.8333 57.1528 70.4333 56.1639 69.6333 55.3667C68.8333 54.5694 67.8444 54.1694 66.6667 54.1667Z" fill="#FFBD66"/>
</svg>
