<svg width="50" height="49" viewBox="0 0 50 49" fill="none" xmlns="http://www.w3.org/2000/svg">
<path fill-rule="evenodd" clip-rule="evenodd" d="M38.75 25.75C44.9632 25.75 50 30.7868 50 37C50 43.2132 44.9632 48.25 38.75 48.25C32.5368 48.25 27.5 43.2132 27.5 37C27.5 30.7868 32.5368 25.75 38.75 25.75ZM35 30.75V43.25L46.25 37L35 30.75ZM25.5176 33.2499C25.1804 34.442 25 35.6999 25 37C25 37.4214 25.019 37.8384 25.0561 38.2502L0 38.25V33.25L25.5176 33.2499ZM10 13.25V30.75H2.5V13.25H10ZM22.5 20.75V30.75H15V20.75H22.5ZM35 18.25L34.9999 23.7676C31.9276 24.6366 29.2925 26.5467 27.4997 29.0927L27.5 18.25H35ZM47.5 20.75L47.5002 26.3931C45.4242 24.6785 42.8364 23.5617 40.0002 23.3061L40 20.75H47.5ZM31.25 0.75C33.3211 0.75 35 2.42893 35 4.5C35 4.55105 34.999 4.60186 34.997 4.65241L40.9316 7.02624C41.6189 6.24384 42.6268 5.75 43.75 5.75C45.8211 5.75 47.5 7.42893 47.5 9.5C47.5 11.5711 45.8211 13.25 43.75 13.25C41.6789 13.25 40 11.5711 40 9.5C40 9.44891 40.001 9.39807 40.003 9.34748L34.0685 6.97362C33.3812 7.7561 32.3733 8.25 31.25 8.25C30.3419 8.25 29.5092 7.92721 28.8603 7.39009L22.4254 11.252C22.4743 11.4937 22.5 11.7439 22.5 12C22.5 14.0711 20.8211 15.75 18.75 15.75C16.6789 15.75 15 14.0711 15 12C15 11.744 15.0256 11.494 15.0745 11.2525L8.63862 7.39098C7.98993 7.92756 7.15762 8.25 6.25 8.25C4.17893 8.25 2.5 6.57107 2.5 4.5C2.5 2.42893 4.17893 0.75 6.25 0.75C8.32107 0.75 10 2.42893 10 4.5C10 4.75603 9.97434 5.00606 9.92546 5.24767L16.3611 9.10922C17.0099 8.57252 17.8423 8.25 18.75 8.25C19.6577 8.25 20.49 8.57249 21.1388 9.10914L27.5745 5.24767C27.5257 5.00606 27.5 4.75603 27.5 4.5C27.5 2.42893 29.1789 0.75 31.25 0.75Z" fill="black"/>
</svg>
